<svg version="1.1" xmlns="http://www.w3.org/2000/svg" xmlns:xlink="http://www.w3.org/1999/xlink" width="91.75483" height="162.34132" viewBox="0,0,91.75483,162.34132"><g transform="translate(-185.39709,-53.23571)"><g data-paper-data="{&quot;isPaintingLayer&quot;:true}" fill-rule="nonzero" stroke-linejoin="miter" stroke-miterlimit="10" stroke-dasharray="" stroke-dashoffset="0" style="mix-blend-mode: normal"><path d="M265.50001,167.69446c-3.2,0.4 -8.6,-1.3 -8.6,-1.3c0,0 -8.1,-46.9 -1.1,-48.6c12.6,-3.4 14.9,46.6 14.9,46.6c0,0 -2.1,2.9 -5.2,3.3z" fill="#dbae76" stroke="none" stroke-width="1" stroke-linecap="butt"></path><path d="M265.50001,167.69446c-3.2,0.4 -8.6,-1.3 -8.6,-1.3c0,0 -8.1,-46.9 -1.1,-48.6c12.6,-3.4 14.9,46.6 14.9,46.6c0,0 -2.1,2.9 -5.2,3.3z" fill="#dbae76" stroke="none" stroke-width="1" stroke-linecap="butt"></path><g data-paper-data="{&quot;origPos&quot;:null}" fill="#dbae76" stroke="none" stroke-width="1" stroke-linecap="butt"><g data-paper-data="{&quot;origPos&quot;:null}"><path d="M273.50001,191.05004l-8.2,2.4l-8.8,-27.1c0,0 3.1,-4.2 6.7,-3.9c2.7,0.2 7.3,1 7.3,1z" data-paper-data="{&quot;origPos&quot;:null}"></path></g><path d="M270.01576,213.6229c-1.88348,0.26926 -1.11285,-8.74994 -2.87745,-8.9118c-1.35281,-0.14109 0.25922,5.45278 -0.17478,6.35369c-0.53211,0.92025 -3.27353,-0.57795 -3.27353,-0.57795c0,0 -2.53514,-5.10618 -2.95909,-7.77456c-1.06202,-5.90611 4.60277,-11.81289 4.60277,-11.81289l7.27682,-0.31292c0,0 4.39499,6.2685 4.53963,10.6227c0.08663,4.05987 -3.00789,9.56204 -3.00789,9.56204c0,0 -2.30244,2.79799 -4.12649,2.85169z" data-paper-data="{&quot;origPos&quot;:null,&quot;index&quot;:null,&quot;origRot&quot;:0}"></path></g><path d="M192.10001,169.75004c-2.5,-0.2 -6.3,-2.2 -6.3,-2.2c0,0 5.6,-50.6 19.9,-50.3c11.2,-0.3 -7.2,51.3 -7.2,51.3c0,0 -3.9,1.4 -6.4,1.2z" fill="#dbae76" stroke="none" stroke-width="1" stroke-linecap="butt"></path><g fill="#dbae76" stroke="none" stroke-width="1" stroke-linecap="butt"><path d="M187.80001,194.45003l-2.1,-27.7c0,0 4,-1.2 6.3,-1.6c3.2,-0.6 6.7,3.3 6.7,3.3l-3.2,27.7z"></path><path d="M190.30001,213.55004c0,0 -4.1,-4.8 -4.8,-8.8c-0.7,-4.3 2.4,-11.3 2.4,-11.3l7.2,-1.1c0,0 6.7,4.7 6.8,10.7c0.1,2.7 -1.4,8.2 -1.4,8.2c0,0 -2.4,2 -3.1,1.2c-0.6,-0.8 -0.1,-6.6 -1.4,-6.2c-1.7,0.5 0.8,9.2 -1.1,9.3c-1.8,0.3 -4.6,-2 -4.6,-2z"></path></g><path d="M231.20001,53.35004c6.8,-1.1 13.9,6.1 13.9,6.1c0,0 4,0.4 5.1,2.4c1.1,2 1.5,5.3 2,10.3c1.2,13.7 -9.6,34.4 -20.4,35c-7.2,-7 -9.5,-0.2 -11.9,-3.6c-5,-7.2 -8,-11.3 -9.9,-20.4c-1.6,-8.1 -2.5,-12.5 0.8,-19.2c3.3,-6.8 10.5,-6.7 10.5,-6.7l-2.9,-1.7c0,0 6.4,-1.5 9,-1.3c2.2,0.1 6.2,1.5 6.2,1.5z" data-paper-data="{&quot;origPos&quot;:null}" fill="#0a0500" stroke="none" stroke-width="0" stroke-linecap="butt"></path><path d="M223.00001,99.45002l15.2,3.4l-0.1,9.1c0,0 4.9,0.9 4.8,3.7c-0.1,4.5 -18.9,6.9 -22.8,0c-1.5,-3.4 2,-4.6 2,-4.6z" data-paper-data="{&quot;origPos&quot;:null}" fill="#b9925f" stroke="none" stroke-width="1" stroke-linecap="butt"></path><path d="M218.40001,88.35002c0.8,2.4 0.3,4.7 -1,5.1c-1.4,0.5 -3.2,-1 -4,-3.4c-0.8,-2.4 -0.3,-4.7 1,-5.1c1.4,-0.5 3.2,1.1 4,3.4z" data-paper-data="{&quot;origPos&quot;:null}" fill="#cca168" stroke="none" stroke-width="1" stroke-linecap="butt"></path><path d="M249.90001,86.15002c0,12.8 -7.9,19.6 -14.7,19.9c-11.8,0.2 -19.4,-9.5 -19.4,-22.3c0,-12.8 2.2,-22.4 17.2,-23.1c11.4,-0.6 18.88333,11.5 16.88333,25.2z" data-paper-data="{&quot;origPos&quot;:null}" fill="#cca168" stroke="none" stroke-width="1" stroke-linecap="butt"></path><path d="M238.30001,98.85004c0,0.7 -2,2.2 -3.7,2.2c-1.7,0 -3.5,-1.9 -3.5,-2.7c0,-0.7 2.2,0 4,0c1.8,0 3.2,-0.2 3.2,0.5z" fill="#000000" stroke="none" stroke-width="1" stroke-linecap="butt"></path><path d="M217.00001,70.85004" fill="none" stroke="#000000" stroke-width="4.38" stroke-linecap="round"></path><path d="M211.80001,78.60718c0,0 -2.81429,-29.07143 27.5,-21.05714c6.9,1.9 11.4,7.8 11.9,11.7c0.46454,3.69049 -1.10482,10.06473 -1.10482,10.06473l-6.39518,-7.96473c0,0 -5,2.6 -8.2,3.4c-4.9,1.3 -12.5,2 -12.5,2l0.9,-5l-8.05482,13.49501l-0.68803,-8.79501z" data-paper-data="{&quot;origPos&quot;:null}" fill="#0a0500" stroke="none" stroke-width="1" stroke-linecap="butt"></path><path d="M237.70001,91.45004c0,0 -0.3,1 -2.2,1c-1.4,0 -2.2,-0.8 -2.2,-0.8" fill="none" stroke="#000000" stroke-width="1.2775" stroke-linecap="round"></path><g><path d="M224.20001,79.65003c0,0 2.9,-0.8 4.4,-0.8c1.7,-0.1 3.7,0.8 3.7,0.8" fill="none" stroke="#000000" stroke-width="1.46" stroke-linecap="round"></path><g><path d="M224.10001,83.25002c0,0 2.2,-1.2 4.5,-1c2.5,0.2 2.9,1.1 2.9,1.1" fill="none" stroke="#000000" stroke-width="1.46" stroke-linecap="round"></path><path d="M227.40001,84.75004c0,-1.2 0.9,-2.2 2.1,-2.2c1.2,0 2.1,1 2.1,2.2c0,1.2 -0.9,2.2 -2.1,2.2c-1.1,0 -2.1,-1 -2.1,-2.2z" fill="#000000" stroke="none" stroke-width="1" stroke-linecap="butt"></path></g></g><g><path d="M239.60001,79.55003c0,0 2.3,-0.8 4,-0.8c1.5,0.1 3.2,0.5 3.2,0.5" fill="none" stroke="#000000" stroke-width="1.46" stroke-linecap="round"></path><g><path d="M239.60001,83.55003c0,0 1,-1.1 2.9,-1.3c2.3,-0.2 4.5,0.4 4.5,0.4" fill="none" stroke="#000000" stroke-width="1.46" stroke-linecap="round"></path><path d="M244.50001,86.65004c-1.2,0 -2.1,-1 -2.1,-2.2c0,-1.2 0.9,-2.2 2.1,-2.2c1.2,0 2.1,1 2.1,2.2c0.1,1.2 -0.9,2.2 -2.1,2.2z" fill="#000000" stroke="none" stroke-width="1" stroke-linecap="butt"></path></g></g></g></g></svg>