<svg version="1.1" xmlns="http://www.w3.org/2000/svg" xmlns:xlink="http://www.w3.org/1999/xlink" width="96.54742" height="129.54441" viewBox="0,0,96.54742,129.54441"><g transform="translate(-174.275,-151.51671)"><g data-paper-data="{&quot;isPaintingLayer&quot;:true}" fill-rule="nonzero" stroke-width="3.65" stroke-linejoin="miter" stroke-miterlimit="10" stroke-dasharray="" stroke-dashoffset="0" style="mix-blend-mode: normal"><path d="M219.6,153.55005c5.6,11.7 4.7,45 4.7,45l-1.68908,14.72343v53.95834" data-paper-data="{&quot;origPos&quot;:null,&quot;index&quot;:null}" fill="none" stroke="#000000" stroke-linecap="round"></path><path d="M181.13534,197.3267c0,0 -0.83292,-23.89759 -1.04503,-29.98336c-0.09285,-2.6639 -1.03306,-5.71592 -1.03306,-5.71592l42.46525,-1.51638l2.28693,35.72831z" data-paper-data="{&quot;index&quot;:null}" fill="#4d535e" stroke="#000000" stroke-linecap="butt"></path><path d="M248.86092,217.64849l-35.83333,0.83333" data-paper-data="{&quot;index&quot;:null}" fill="none" stroke="#4d535e" stroke-linecap="round"></path><path d="M241.49742,221.59724v57.63889" data-paper-data="{&quot;index&quot;:null}" fill="none" stroke="#000000" stroke-linecap="round"></path><path d="M266.56926,215.14848l-24.58334,5h-61.18592v-21.80676c0,0 0.9,-33.3 -4.7,-45" data-paper-data="{&quot;index&quot;:null}" fill="none" stroke="#000000" stroke-linecap="round"></path><path d="M180.87242,277.77781v-56.59723l41.32184,-5.83334h45.34483l1.45833,53.68056" data-paper-data="{&quot;index&quot;:null}" fill="none" stroke="#000000" stroke-linecap="round"></path><path d="M266.36092,217.44015l-26.04167,5.20833l-58.95833,-0.83333" data-paper-data="{&quot;index&quot;:null}" fill="none" stroke="#000000" stroke-linecap="round"></path><path d="M180.73591,223.27349l59.79167,1.25l26.66667,-4.16667l-25.625,5.625l-60.20833,-1.45833" data-paper-data="{&quot;index&quot;:null}" fill="none" stroke="#000000" stroke-linecap="round"></path><path d="M267.19426,221.39849l-26.66667,5.83333l-59.79167,-0.83333" data-paper-data="{&quot;index&quot;:null}" fill="none" stroke="#000000" stroke-linecap="round"></path><path d="M265.94426,223.06516l-26.04167,5.83333l-58.75,-1.25" data-paper-data="{&quot;index&quot;:null}" fill="none" stroke="#000000" stroke-linecap="round"></path></g></g></svg>