<svg version="1.1" xmlns="http://www.w3.org/2000/svg" xmlns:xlink="http://www.w3.org/1999/xlink" width="89.2" height="88.98315" viewBox="0,0,89.2,88.98315"><g transform="translate(-186.0001,-109.36952)"><g data-paper-data="{&quot;isPaintingLayer&quot;:true}" fill-rule="nonzero" stroke="none" stroke-width="1" stroke-linecap="butt" stroke-linejoin="miter" stroke-miterlimit="10" stroke-dasharray="" stroke-dashoffset="0" style="mix-blend-mode: normal"><path d="M251.10011,149.39447c0,0 -9,-32.9 2.5,-35.1c16.71291,-3.29032 21.6,29 21.6,29z" fill="#780000"></path><path d="M202.50011,193.45006l-0.2,-76.3c0,0 4.38065,-2.27679 10.44985,-4.41675c2.66626,-0.94011 6.46485,-1.36994 9.55462,-2.05259c1.10003,-0.24304 -3.24824,1.28726 -1.51179,4.47617c1.97735,3.63132 6.55343,4.08313 9.54602,4.21575c1.00566,-0.01547 12.68281,0.00874 12.33471,-3.53574c-0.35964,-3.66191 -2.79513,-2.69009 -4.3544,-3.74561c-0.96355,-0.65226 -0.71961,-2.76505 -0.28937,-2.72109c3.01928,0.30846 5.50554,0.80824 8.00015,1.3818c5.49776,1.26405 9.4693,2.88646 10.80353,3.60917c2.3,1.2 3.06666,81.28889 3.06666,81.28889c0,0 -17.1,2.8 -28.7,2.7c-11.8,-0.2 -28.7,-4.9 -28.7,-4.9z" data-paper-data="{&quot;origPos&quot;:null}" fill="#9a0000"></path><path d="M186.00011,143.85002c0,0 12.5,-28.3 19.5,-27.5c16.6,1.8 2.8,36.2 2.8,36.2z" fill="#780000"></path></g></g></svg>