<svg version="1.1" xmlns="http://www.w3.org/2000/svg" xmlns:xlink="http://www.w3.org/1999/xlink" width="570" height="423" viewBox="0,0,570,423"><g transform="translate(41.5,32.5)"><g data-paper-data="{&quot;isPaintingLayer&quot;:true}" fill-rule="nonzero" stroke-linecap="butt" stroke-linejoin="miter" stroke-miterlimit="10" stroke-dasharray="" stroke-dashoffset="0" style="mix-blend-mode: normal"><path d="M-41.5,390.5v-423h570v423z" fill="#2c67ff" stroke="none" stroke-width="0"/><text transform="translate(143.125,75.5) scale(1.29167,1.29167)" font-size="40" xml:space="preserve" fill="#ffffff" fill-rule="nonzero" stroke="none" stroke-width="1" stroke-linecap="butt" stroke-linejoin="miter" stroke-miterlimit="10" stroke-dasharray="" stroke-dashoffset="0" font-family="Sans Serif" font-weight="normal" text-anchor="start" style="mix-blend-mode: normal"><tspan x="0" dy="0">Scores</tspan></text><g stroke="#000000" stroke-width="0.5"><path d="M0.16667,282.27777v-163.33333h159.33333v163.33333z" fill="#f5f5f5"/><path d="M0.2,132.3v-12.66667h101v12.66667z" fill="#ffdddd"/><path d="M0.2,147.3v-12.66667h101v12.66667z" fill="#ddffdd"/><path d="M110.4,282.725v-104.25h19.5v104.25z" fill="#ffdddd"/><path d="M130.4,282.725v-104.25h29.16666v104.25z" fill="#ddffdd"/><path d="M0.80001,192.45v-14.5h159v14.5z" fill="none"/><path d="M0.80001,207.45v-14.5h159v14.5z" fill="none"/><path d="M0.80001,222.45v-14.5h159v14.5z" fill="none"/><path d="M0.80001,237.45v-14.5h159v14.5z" fill="none"/><path d="M0.80001,252.45v-14.5h159v14.5z" fill="none"/><path d="M0.80001,267.45v-14.5h159v14.5z" fill="none"/><path d="M0.80001,282.45v-14.5h159v14.5z" fill="none"/></g><g stroke="#000000" stroke-width="0.5"><path d="M160.16667,282.27778v-163.33334h159.33333v163.33334z" fill="#f5f5f5"/><path d="M160.2,132.3v-12.66667h101v12.66667z" fill="#ffdddd"/><path d="M160.2,147.3v-12.66667h101v12.66667z" fill="#ddffdd"/><path d="M270.4,282.725v-104.25h19.5v104.25z" fill="#ffdddd"/><path d="M290.4,282.725v-104.25h29.16667v104.25z" fill="#ddffdd"/><path d="M160.80001,192.45v-14.5h159v14.5z" fill="none"/><path d="M160.80001,207.45v-14.5h159v14.5z" fill="none"/><path d="M160.80001,222.45v-14.5h159v14.5z" fill="none"/><path d="M160.80001,237.45v-14.5h159v14.5z" fill="none"/><path d="M160.80001,252.45v-14.5h159v14.5z" fill="none"/><path d="M160.80001,267.45v-14.5h159v14.5z" fill="none"/><path d="M160.80001,282.45v-14.5h159v14.5z" fill="none"/></g><g stroke="#000000" stroke-width="0.5"><path d="M320.16667,282.27778v-163.33334h159.33333v163.33334z" fill="#f5f5f5"/><path d="M320.2,132.3v-12.66667h101v12.66667z" fill="#ffdddd"/><path d="M320.2,147.3v-12.66667h101v12.66667z" fill="#ddffdd"/><path d="M430.4,282.725v-104.25h19.5v104.25z" fill="#ffdddd"/><path d="M450.4,282.725v-104.25h29.16667v104.25z" fill="#ddffdd"/><path d="M320.80001,192.45v-14.5h159v14.5z" fill="none"/><path d="M320.80001,207.45v-14.5h159v14.5z" fill="none"/><path d="M320.80001,222.45v-14.5h159v14.5z" fill="none"/><path d="M320.80001,237.45v-14.5h159v14.5z" fill="none"/><path d="M320.80001,252.45v-14.5h159v14.5z" fill="none"/><path d="M320.80001,267.45v-14.5h159v14.5z" fill="none"/><path d="M320.80001,282.45v-14.5h159v14.5z" fill="none"/></g></g></g></svg>