<svg version="1.1" xmlns="http://www.w3.org/2000/svg" xmlns:xlink="http://www.w3.org/1999/xlink" width="90.23438" height="30" viewBox="0,0,90.23438,30"><g transform="translate(-203.08956,-194.83333)"><g data-paper-data="{&quot;isPaintingLayer&quot;:true}" fill-rule="nonzero" stroke="none" stroke-linecap="butt" stroke-linejoin="miter" stroke-miterlimit="10" stroke-dasharray="" stroke-dashoffset="0" style="mix-blend-mode: normal"><path d="M204.75623,219.83072c0,-3.51787 0,-13.9251 0,-19.52242c0,-2.20265 1.81647,-3.66045 4.03698,-3.66045c9.07888,0 64.52352,0 80.55277,0c2.46083,0 3.97796,2.04653 3.97796,3.90448c0,3.1331 0,13.132 0,19.27839c0,2.94291 -1.56498,5.00262 -3.52967,5.00262c-8.67909,0 -65.81091,0 -81.47715,0c-2.27182,0 -3.56089,-2.72538 -3.56089,-5.00262z" fill-opacity="0.5" fill="#000000" stroke-width="0"/><path d="M203.08956,218.0162c0,-3.51787 0,-13.9251 0,-19.52242c0,-2.20265 1.81647,-3.66045 4.03698,-3.66045c9.07888,0 64.52352,0 80.55277,0c2.46083,0 3.97797,2.04653 3.97797,3.90448c0,3.1331 0,13.132 0,19.27839c0,2.94291 -1.56498,5.00262 -3.52968,5.00262c-8.67909,0 -65.81091,0 -81.47715,0c-2.27182,0 -3.56088,-2.72538 -3.56088,-5.00262z" fill="#ffffff" stroke-width="0"/><path d="M205.4135,216.83334c0,-5.10123 0,-14.00167 0,-16.55555c0,-1.3511 1.61378,-2.77778 3.5865,-2.77778c7.98239,0 60.9902,0 75.88889,0c2.46681,0 3.88889,1.34142 3.88889,3.33334c0,4.76233 0,13.24299 0,16c0,1.70286 -1.12536,3.66666 -3.11111,3.66666c-13.85604,0 -69.60339,0 -77.22222,0c-1.69198,0 -3.03095,-1.48629 -3.03095,-3.66666z" fill="#2c67ff" stroke-width="0"/><text transform="translate(212.19127,213.62389) scale(0.30199,0.30199)" font-size="40" xml:space="preserve" fill="#ffffff" fill-rule="nonzero" stroke="none" stroke-width="1" stroke-linecap="butt" stroke-linejoin="miter" stroke-miterlimit="10" stroke-dasharray="" stroke-dashoffset="0" font-family="Sans Serif" font-weight="normal" text-anchor="start" style="mix-blend-mode: normal"><tspan x="0" dy="0">Substitution</tspan></text></g></g></svg>