<svg version="1.1" xmlns="http://www.w3.org/2000/svg" xmlns:xlink="http://www.w3.org/1999/xlink" width="96.54742" height="129.54441" viewBox="0,0,96.54742,129.54441"><g transform="translate(-174.275,-151.51671)"><g data-paper-data="{&quot;isPaintingLayer&quot;:true}" fill-rule="nonzero" stroke-width="3.65" stroke-linejoin="miter" stroke-miterlimit="10" stroke-dasharray="" stroke-dashoffset="0" style="mix-blend-mode: normal"><path d="M222.4865,267.23181v-53.95834l-1.68908,-14.72343c0,0 -0.9,-33.3 4.7,-45" data-paper-data="{&quot;origPos&quot;:null,&quot;index&quot;:null}" fill="none" stroke="#000000" stroke-linecap="round"></path><path d="M221.28799,195.83934l2.28693,-35.72831l42.46525,1.51638c0,0 -0.94021,3.05202 -1.03306,5.71592c-0.21211,6.08577 -1.04503,29.98336 -1.04503,29.98336z" data-paper-data="{&quot;index&quot;:null}" fill="#4d535e" stroke="#000000" stroke-linecap="butt"></path><path d="M196.2365,217.64848l35.83333,0.83333" data-paper-data="{&quot;index&quot;:null}" fill="none" stroke="#4d535e" stroke-linecap="round"></path><path d="M203.6,221.59723v57.63889" data-paper-data="{&quot;index&quot;:null}" fill="none" stroke="#000000" stroke-linecap="round"></path><path d="M268.99742,153.34171c-5.6,11.7 -4.7,45 -4.7,45v21.80676h-61.18592l-24.58334,-5" data-paper-data="{&quot;index&quot;:null}" fill="none" stroke="#000000" stroke-linecap="round"></path><path d="M176.1,269.02779l1.45833,-53.68056h45.34483l41.32184,5.83334v56.59723" data-paper-data="{&quot;index&quot;:null}" fill="none" stroke="#000000" stroke-linecap="round"></path><path d="M263.7365,221.81514l-58.95833,0.83333l-26.04167,-5.20833" data-paper-data="{&quot;index&quot;:null}" fill="none" stroke="#000000" stroke-linecap="round"></path><path d="M263.7365,224.52348l-60.20833,1.45833l-25.625,-5.625l26.66667,4.16667l59.79167,-1.25" data-paper-data="{&quot;index&quot;:null}" fill="none" stroke="#000000" stroke-linecap="round"></path><path d="M264.3615,226.39848l-59.79167,0.83333l-26.66667,-5.83333" data-paper-data="{&quot;index&quot;:null}" fill="none" stroke="#000000" stroke-linecap="round"></path><path d="M263.94483,227.64848l-58.75,1.25l-26.04167,-5.83333" data-paper-data="{&quot;index&quot;:null}" fill="none" stroke="#000000" stroke-linecap="round"></path></g></g></svg>