<svg version="1.1" xmlns="http://www.w3.org/2000/svg" xmlns:xlink="http://www.w3.org/1999/xlink" width="488.03389" height="380" viewBox="0,0,488.03389,380"><g transform="translate(3.49999,18.5)"><g stroke-miterlimit="10"><path d="M0.00002,360v-360h480v360z" fill="#9c6e6b" stroke="none" stroke-width="0" stroke-linecap="butt"></path><path d="M0.00002,361.5v-178.5h480v178.5z" fill="#8b5d5a" stroke="none" stroke-width="0" stroke-linecap="butt"></path><path d="M221.50003,147c0,-10.21727 8.28273,-18.5 18.5,-18.5c10.21727,0 18.5,8.28273 18.5,18.5c0,10.21727 -8.28273,18.5 -18.5,18.5c-10.21727,0 -18.5,-8.28273 -18.5,-18.5z" fill="#a57b7c" stroke="none" stroke-width="0" stroke-linecap="butt"></path><path d="M296.50002,147c0,-10.21727 8.28273,-18.5 18.5,-18.5c10.21727,0 18.5,8.28273 18.5,18.5c0,10.21727 -8.28273,18.5 -18.5,18.5c-10.21727,0 -18.5,-8.28273 -18.5,-18.5z" fill="#a57b7c" stroke="none" stroke-width="0" stroke-linecap="butt"></path><path d="M146.5,147c0,-10.21727 8.28273,-18.5 18.5,-18.5c10.21727,0 18.5,8.28273 18.5,18.5c0,10.21727 -8.28273,18.5 -18.5,18.5c-10.21727,0 -18.5,-8.28273 -18.5,-18.5z" fill="#a57b7c" stroke="none" stroke-width="0" stroke-linecap="butt"></path><path d="M371.50002,147c0,-10.21727 8.28273,-18.5 18.5,-18.5c10.21727,0 18.5,8.28273 18.5,18.5c0,10.21727 -8.28273,18.5 -18.5,18.5c-10.21727,0 -18.5,-8.28273 -18.5,-18.5z" fill="#a57b7c" stroke="none" stroke-width="0" stroke-linecap="butt"></path><path d="M446.50002,147c0,-10.21727 8.28273,-18.5 18.5,-18.5c10.21727,0 18.5,8.28273 18.5,18.5c0,10.21727 -8.28273,18.5 -18.5,18.5c-10.21727,0 -18.5,-8.28273 -18.5,-18.5z" fill="#a57b7c" stroke="none" stroke-width="0" stroke-linecap="butt"></path><path d="M71.50002,147c0,-10.21727 8.28273,-18.5 18.5,-18.5c10.21727,0 18.5,8.28273 18.5,18.5c0,10.21727 -8.28273,18.5 -18.5,18.5c-10.21727,0 -18.5,-8.28273 -18.5,-18.5z" fill="#a57b7c" stroke="none" stroke-width="0" stroke-linecap="butt"></path><path d="M-3.49998,147c0,-10.21727 8.28273,-18.5 18.5,-18.5c10.21727,0 18.5,8.28273 18.5,18.5c0,10.21727 -8.28273,18.5 -18.5,18.5c-10.21727,0 -18.5,-8.28273 -18.5,-18.5z" fill="#a57b7c" stroke="none" stroke-width="0" stroke-linecap="butt"></path><path d="M221.50003,75c0,-10.21727 8.28273,-18.5 18.5,-18.5c10.21727,0 18.5,8.28273 18.5,18.5c0,10.21727 -8.28273,18.5 -18.5,18.5c-10.21727,0 -18.5,-8.28273 -18.5,-18.5z" fill="#a57b7c" stroke="none" stroke-width="0" stroke-linecap="butt"></path><path d="M296.50002,75c0,-10.21727 8.28273,-18.5 18.5,-18.5c10.21727,0 18.5,8.28273 18.5,18.5c0,10.21727 -8.28273,18.5 -18.5,18.5c-10.21727,0 -18.5,-8.28273 -18.5,-18.5z" fill="#a57b7c" stroke="none" stroke-width="0" stroke-linecap="butt"></path><path d="M146.5,75c0,-10.21727 8.28273,-18.5 18.5,-18.5c10.21727,0 18.5,8.28273 18.5,18.5c0,10.21727 -8.28273,18.5 -18.5,18.5c-10.21727,0 -18.5,-8.28273 -18.5,-18.5z" fill="#a57b7c" stroke="none" stroke-width="0" stroke-linecap="butt"></path><path d="M371.50002,75c0,-10.21727 8.28273,-18.5 18.5,-18.5c10.21727,0 18.5,8.28273 18.5,18.5c0,10.21727 -8.28273,18.5 -18.5,18.5c-10.21727,0 -18.5,-8.28273 -18.5,-18.5z" fill="#a57b7c" stroke="none" stroke-width="0" stroke-linecap="butt"></path><path d="M446.50002,75c0,-10.21727 8.28273,-18.5 18.5,-18.5c10.21727,0 18.5,8.28273 18.5,18.5c0,10.21727 -8.28273,18.5 -18.5,18.5c-10.21727,0 -18.5,-8.28273 -18.5,-18.5z" fill="#a57b7c" stroke="none" stroke-width="0" stroke-linecap="butt"></path><path d="M71.50002,75c0,-10.21727 8.28273,-18.5 18.5,-18.5c10.21727,0 18.5,8.28273 18.5,18.5c0,10.21727 -8.28273,18.5 -18.5,18.5c-10.21727,0 -18.5,-8.28273 -18.5,-18.5z" fill="#a57b7c" stroke="none" stroke-width="0" stroke-linecap="butt"></path><path d="M-3.49998,75c0,-10.21727 8.28273,-18.5 18.5,-18.5c10.21727,0 18.5,8.28273 18.5,18.5c0,10.21727 -8.28273,18.5 -18.5,18.5c-10.21727,0 -18.5,-8.28273 -18.5,-18.5z" fill="#a57b7c" stroke="none" stroke-width="0" stroke-linecap="butt"></path><path d="M221.50003,0c0,-10.21727 8.28273,-18.5 18.5,-18.5c10.21727,0 18.5,8.28273 18.5,18.5c0,10.21727 -8.28273,18.5 -18.5,18.5c-10.21727,0 -18.5,-8.28273 -18.5,-18.5z" fill="#a57b7c" stroke="none" stroke-width="0" stroke-linecap="butt"></path><path d="M296.50002,0c0,-10.21727 8.28273,-18.5 18.5,-18.5c10.21727,0 18.5,8.28273 18.5,18.5c0,10.21727 -8.28273,18.5 -18.5,18.5c-10.21727,0 -18.5,-8.28273 -18.5,-18.5z" fill="#a57b7c" stroke="none" stroke-width="0" stroke-linecap="butt"></path><path d="M146.5,0c0,-10.21727 8.28273,-18.5 18.5,-18.5c10.21727,0 18.5,8.28273 18.5,18.5c0,10.21727 -8.28273,18.5 -18.5,18.5c-10.21727,0 -18.5,-8.28273 -18.5,-18.5z" fill="#a57b7c" stroke="none" stroke-width="0" stroke-linecap="butt"></path><path d="M371.50002,0c0,-10.21727 8.28273,-18.5 18.5,-18.5c10.21727,0 18.5,8.28273 18.5,18.5c0,10.21727 -8.28273,18.5 -18.5,18.5c-10.21727,0 -18.5,-8.28273 -18.5,-18.5z" fill="#a57b7c" stroke="none" stroke-width="0" stroke-linecap="butt"></path><path d="M446.50002,0c0,-10.21727 8.28273,-18.5 18.5,-18.5c10.21727,0 18.5,8.28273 18.5,18.5c0,10.21727 -8.28273,18.5 -18.5,18.5c-10.21727,0 -18.5,-8.28273 -18.5,-18.5z" fill="#a57b7c" stroke="none" stroke-width="0" stroke-linecap="butt"></path><path d="M71.50002,0c0,-10.21727 8.28273,-18.5 18.5,-18.5c10.21727,0 18.5,8.28273 18.5,18.5c0,10.21727 -8.28273,18.5 -18.5,18.5c-10.21727,0 -18.5,-8.28273 -18.5,-18.5z" fill="#a57b7c" stroke="none" stroke-width="0" stroke-linecap="butt"></path><path d="M-3.49998,0c0,-10.21727 8.28273,-18.5 18.5,-18.5c10.21727,0 18.5,8.28273 18.5,18.5c0,10.21727 -8.28273,18.5 -18.5,18.5c-10.21727,0 -18.5,-8.28273 -18.5,-18.5z" fill="#a57b7c" stroke="none" stroke-width="0" stroke-linecap="butt"></path><g><g stroke-width="1.75"><path d="M46.53034,178.39613c2.57965,5.38963 2.16506,20.72936 2.16506,20.72936l-0.77808,6.78238v24.85605" fill="none" stroke="#000000" stroke-linecap="round"></path><path d="M28.8115,198.56195c0,0 -0.38368,-11.00849 -0.48139,-13.81191c-0.04277,-1.22713 -0.47588,-2.63305 -0.47588,-2.63305l19.56173,-0.69852l1.05348,16.45834z" fill="#4d535e" stroke="#000000" stroke-linecap="butt"></path><path d="M60.00946,207.92323l-16.50671,0.38387" fill="none" stroke="#4d535e" stroke-linecap="round"></path><path d="M56.61744,236.29374v-26.5515" fill="none" stroke="#000000" stroke-linecap="round"></path><path d="M68.16684,206.7716l-11.32438,2.30327h-28.18545v-10.04534c0,0 0.41459,-15.33973 -2.16506,-20.72937" fill="none" stroke="#000000" stroke-linecap="round"></path><path d="M28.69038,235.62196v-26.07166l19.03502,-2.68714h20.88821l0.67178,24.72809" fill="none" stroke="#000000" stroke-linecap="round"></path><path d="M68.07085,207.82726l-11.99616,2.39923l-27.15931,-0.38387" fill="none" stroke="#000000" stroke-linecap="round"></path><path d="M28.6275,210.5144l27.54319,0.57582l12.28406,-1.91939l-11.80422,2.59117l-27.73512,-0.67178" fill="none" stroke="#000000" stroke-linecap="round"></path><path d="M68.45476,209.65068l-12.28407,2.68713l-27.54318,-0.38387" fill="none" stroke="#000000" stroke-linecap="round"></path><path d="M67.87892,210.41844l-11.99616,2.68714l-27.06334,-0.57581" fill="none" stroke="#000000" stroke-linecap="round"></path></g><g stroke-width="1.75"><path d="M18.89673,183.68413c2.57965,5.38963 2.16507,20.72936 2.16507,20.72936l-0.77808,6.78238v24.85605" fill="none" stroke="#000000" stroke-linecap="round"></path><path d="M1.17788,203.84995c0,0 -0.38368,-11.00848 -0.4814,-13.81191c-0.04277,-1.22713 -0.47588,-2.63305 -0.47588,-2.63305l19.56172,-0.69853l1.05348,16.45833z" fill="#4d535e" stroke="#000000" stroke-linecap="butt"></path><path d="M32.37584,213.21124l-16.50671,0.38388" fill="none" stroke="#4d535e" stroke-linecap="round"></path><path d="M28.98383,215.03024v26.5515" fill="none" stroke="#000000" stroke-linecap="round"></path><path d="M40.53324,212.0596l-11.32438,2.30327h-28.18545v-10.04534c0,0 0.41459,-15.33973 -2.16506,-20.72937" fill="none" stroke="#000000" stroke-linecap="round"></path><path d="M1.05677,240.90996v-26.07166l19.03501,-2.68714h20.88821l0.67178,24.72809" fill="none" stroke="#000000" stroke-linecap="round"></path><path d="M40.43724,213.11527l-11.99616,2.39923l-27.1593,-0.38387" fill="none" stroke="#000000" stroke-linecap="round"></path><path d="M0.99389,215.80241l27.54318,0.57582l12.28406,-1.91939l-11.80422,2.59117l-27.73512,-0.67178" fill="none" stroke="#000000" stroke-linecap="round"></path><path d="M40.82114,214.93869l-12.28407,2.68714l-27.54318,-0.38387" fill="none" stroke="#000000" stroke-linecap="round"></path><path d="M40.24533,215.70644l-11.99616,2.68714l-27.06333,-0.57582" fill="none" stroke="#000000" stroke-linecap="round"></path></g><g stroke-width="1.75"><path d="M78.96501,172.42225c2.57966,5.38963 2.16506,20.72936 2.16506,20.72936l-0.77808,6.78239v24.85605" fill="none" stroke="#000000" stroke-linecap="round"></path><path d="M61.24617,192.58807c0,0 -0.38368,-11.00848 -0.48139,-13.81191c-0.04277,-1.22713 -0.47588,-2.63305 -0.47588,-2.63305l19.56173,-0.69852l1.05348,16.45834z" fill="#4d535e" stroke="#000000" stroke-linecap="butt"></path><path d="M92.44411,201.94936l-16.50671,0.38387" fill="none" stroke="#4d535e" stroke-linecap="round"></path><path d="M89.05212,230.31986v-26.5515" fill="none" stroke="#000000" stroke-linecap="round"></path><path d="M100.60153,200.79772l-11.32438,2.30327h-28.18545v-10.04534c0,0 0.41459,-15.33973 -2.16506,-20.72937" fill="none" stroke="#000000" stroke-linecap="round"></path><path d="M61.12506,229.64808v-26.07166l19.03502,-2.68714h20.88821l0.67178,24.72809" fill="none" stroke="#000000" stroke-linecap="round"></path><path d="M100.50555,201.85339l-11.99616,2.39923l-27.15931,-0.38387" fill="none" stroke="#000000" stroke-linecap="round"></path><path d="M61.06219,204.54053l27.54319,0.57582l12.28406,-1.91939l-11.80422,2.59117l-27.73512,-0.67178" fill="none" stroke="#000000" stroke-linecap="round"></path><path d="M100.88943,203.67681l-12.28407,2.68713l-27.54318,-0.38387" fill="none" stroke="#000000" stroke-linecap="round"></path><path d="M100.31362,204.44456l-11.99616,2.68714l-27.06334,-0.57581" fill="none" stroke="#000000" stroke-linecap="round"></path></g><g stroke-width="1.75"><path d="M107.28451,167.13425c2.57966,5.38963 2.16506,20.72936 2.16506,20.72936l-0.77808,6.78239v24.85605" fill="none" stroke="#000000" stroke-linecap="round"></path><path d="M89.56565,187.30007c0,0 -0.38368,-11.00849 -0.48139,-13.81191c-0.04277,-1.22713 -0.47588,-2.63305 -0.47588,-2.63305l19.56172,-0.69852l1.05348,16.45833z" fill="#4d535e" stroke="#000000" stroke-linecap="butt"></path><path d="M120.76361,196.66136l-16.50671,0.38387" fill="none" stroke="#4d535e" stroke-linecap="round"></path><path d="M117.3716,198.48036v26.5515" fill="none" stroke="#000000" stroke-linecap="round"></path><path d="M128.92101,195.50972l-11.32438,2.30327h-28.18545v-10.04534c0,0 0.41459,-15.33973 -2.16506,-20.72937" fill="none" stroke="#000000" stroke-linecap="round"></path><path d="M89.44454,224.36008v-26.07165l19.03501,-2.68715h20.88821l0.67178,24.72809" fill="none" stroke="#000000" stroke-linecap="round"></path><path d="M128.82503,196.56539l-11.99616,2.39923l-27.15931,-0.38387" fill="none" stroke="#000000" stroke-linecap="round"></path><path d="M89.38166,199.25253l27.54318,0.57582l12.28407,-1.91939l-11.80422,2.59117l-27.73512,-0.67178" fill="none" stroke="#000000" stroke-linecap="round"></path><path d="M129.2089,198.38881l-12.28407,2.68714l-27.54318,-0.38387" fill="none" stroke="#000000" stroke-linecap="round"></path><path d="M128.63311,199.15656l-11.99616,2.68714l-27.06333,-0.57582" fill="none" stroke="#000000" stroke-linecap="round"></path></g><g stroke-width="1.75"><path d="M138.34742,162.53211c2.57966,5.38963 2.16506,20.72936 2.16506,20.72936l-0.77808,6.78238v24.85605" fill="none" stroke="#000000" stroke-linecap="round"></path><path d="M120.6286,182.69793c0,0 -0.38368,-11.00849 -0.48139,-13.81191c-0.04277,-1.22713 -0.47588,-2.63305 -0.47588,-2.63305l19.56172,-0.69852l1.05348,16.45834z" fill="#4d535e" stroke="#000000" stroke-linecap="butt"></path><path d="M135.31984,192.44309l16.50671,-0.38387" fill="none" stroke="#4d535e" stroke-linecap="round"></path><path d="M148.43454,220.42972v-26.5515" fill="none" stroke="#000000" stroke-linecap="round"></path><path d="M159.98395,190.90758l-11.32438,2.30327h-28.18545v-10.04534c0,0 0.41459,-15.33973 -2.16506,-20.72937" fill="none" stroke="#000000" stroke-linecap="round"></path><path d="M120.50748,219.75794v-26.07165l19.03501,-2.68715h20.88821l0.67178,24.72809" fill="none" stroke="#000000" stroke-linecap="round"></path><path d="M159.88798,191.96325l-11.99616,2.39923l-27.1593,-0.38387" fill="none" stroke="#000000" stroke-linecap="round"></path><path d="M120.44461,194.65039l27.54318,0.57582l12.28407,-1.91939l-11.80422,2.59117l-27.73512,-0.67178" fill="none" stroke="#000000" stroke-linecap="round"></path><path d="M160.27185,193.78667l-12.28407,2.68713l-27.54318,-0.38387" fill="none" stroke="#000000" stroke-linecap="round"></path><path d="M159.69601,194.55442l-11.99616,2.68714l-27.06333,-0.57582" fill="none" stroke="#000000" stroke-linecap="round"></path></g><g stroke-width="1.75"><path d="M434.59992,228.21938v-24.85605l-0.77808,-6.78239c0,0 -0.41459,-15.33972 2.16507,-20.72936" fill="none" stroke="#000000" stroke-linecap="round"></path><path d="M434.04783,195.33226l1.05348,-16.45834l19.56172,0.69852c0,0 -0.43311,1.40592 -0.47588,2.63305c-0.09771,2.80343 -0.4814,13.81191 -0.4814,13.81191z" fill="#4d535e" stroke="#000000" stroke-linecap="butt"></path><path d="M422.5078,205.37869l16.50671,0.38387" fill="none" stroke="#4d535e" stroke-linecap="round"></path><path d="M425.89981,207.1977v26.5515" fill="none" stroke="#000000" stroke-linecap="round"></path><path d="M456.0253,175.75562c-2.57966,5.38963 -2.16507,20.72936 -2.16507,20.72936v10.04534h-28.18545l-11.32438,-2.30327" fill="none" stroke="#000000" stroke-linecap="round"></path><path d="M413.23187,229.0467l0.67178,-24.72809h20.88821l19.03501,2.68714v26.07166" fill="none" stroke="#000000" stroke-linecap="round"></path><path d="M453.60183,207.29808l-27.1593,0.38387l-11.99616,-2.39923" fill="none" stroke="#000000" stroke-linecap="round"></path><path d="M453.60183,208.54568l-27.73512,0.67178l-11.80422,-2.59117l12.28406,1.91939l27.54318,-0.57582" fill="none" stroke="#000000" stroke-linecap="round"></path><path d="M453.88975,209.4094l-27.54318,0.38387l-12.28407,-2.68713" fill="none" stroke="#000000" stroke-linecap="round"></path><path d="M453.69781,209.98522l-27.06333,0.57581l-11.99616,-2.68714" fill="none" stroke="#000000" stroke-linecap="round"></path></g><g stroke-width="1.75"><path d="M462.23353,233.50739v-24.85605l-0.77808,-6.78238c0,0 -0.41459,-15.33973 2.16507,-20.72936" fill="none" stroke="#000000" stroke-linecap="round"></path><path d="M461.68144,200.62026l1.05348,-16.45834l19.56172,0.69852c0,0 -0.43311,1.40592 -0.47588,2.63305c-0.09771,2.80342 -0.4814,13.81191 -0.4814,13.81191z" fill="#4d535e" stroke="#000000" stroke-linecap="butt"></path><path d="M466.64812,211.05057l-16.50671,-0.38387" fill="none" stroke="#4d535e" stroke-linecap="round"></path><path d="M453.53341,239.0372v-26.5515" fill="none" stroke="#000000" stroke-linecap="round"></path><path d="M483.65891,181.04362c-2.57966,5.38963 -2.16507,20.72937 -2.16507,20.72937v10.04534h-28.18545l-11.32438,-2.30327" fill="none" stroke="#000000" stroke-linecap="round"></path><path d="M440.86548,234.33471l0.67178,-24.72809h20.88821l19.03501,2.68714v26.07166" fill="none" stroke="#000000" stroke-linecap="round"></path><path d="M481.23545,212.58608l-27.1593,0.38387l-11.99616,-2.39923" fill="none" stroke="#000000" stroke-linecap="round"></path><path d="M481.23545,213.83369l-27.73512,0.67178l-11.80422,-2.59117l12.28406,1.91939l27.54318,-0.57582" fill="none" stroke="#000000" stroke-linecap="round"></path><path d="M481.52336,214.69741l-27.54318,0.38387l-12.28407,-2.68713" fill="none" stroke="#000000" stroke-linecap="round"></path><path d="M481.33141,215.27322l-27.06333,0.57581l-11.99616,-2.68714" fill="none" stroke="#000000" stroke-linecap="round"></path></g><g stroke-width="1.75"><path d="M402.16524,222.24551v-24.85605l-0.77808,-6.78239c0,0 -0.41459,-15.33972 2.16507,-20.72936" fill="none" stroke="#000000" stroke-linecap="round"></path><path d="M401.61315,189.35839l1.05348,-16.45833l19.56172,0.69852c0,0 -0.43311,1.40592 -0.47588,2.63305c-0.09771,2.80343 -0.4814,13.81191 -0.4814,13.81191z" fill="#4d535e" stroke="#000000" stroke-linecap="butt"></path><path d="M406.57983,199.78869l-16.50671,-0.38387" fill="none" stroke="#4d535e" stroke-linecap="round"></path><path d="M393.46513,227.77533v-26.5515" fill="none" stroke="#000000" stroke-linecap="round"></path><path d="M423.59062,169.78175c-2.57966,5.38963 -2.16507,20.72937 -2.16507,20.72937v10.04534h-28.18545l-11.32438,-2.30327" fill="none" stroke="#000000" stroke-linecap="round"></path><path d="M380.79719,223.07283l0.67178,-24.72809h20.88821l19.03501,2.68715v26.07165" fill="none" stroke="#000000" stroke-linecap="round"></path><path d="M421.16716,201.32421l-27.1593,0.38387l-11.99616,-2.39923" fill="none" stroke="#000000" stroke-linecap="round"></path><path d="M421.16716,202.57181l-27.73512,0.67178l-11.80422,-2.59117l12.28406,1.91939l27.54318,-0.57582" fill="none" stroke="#000000" stroke-linecap="round"></path><path d="M421.45507,203.43553l-27.54318,0.38387l-12.28407,-2.68714" fill="none" stroke="#000000" stroke-linecap="round"></path><path d="M421.26313,204.01135l-27.06333,0.57582l-11.99616,-2.68714" fill="none" stroke="#000000" stroke-linecap="round"></path></g><g stroke-width="1.75"><path d="M373.84577,216.95751v-24.85605l-0.77808,-6.78238c0,0 -0.41459,-15.33972 2.16506,-20.72936" fill="none" stroke="#000000" stroke-linecap="round"></path><path d="M373.29367,184.07038l1.05348,-16.45834l19.56172,0.69852c0,0 -0.43311,1.40592 -0.47588,2.63305c-0.09771,2.80343 -0.48139,13.81191 -0.48139,13.81191z" fill="#4d535e" stroke="#000000" stroke-linecap="butt"></path><path d="M378.26035,194.50069l-16.50671,-0.38387" fill="none" stroke="#4d535e" stroke-linecap="round"></path><path d="M365.14566,195.93582v26.5515" fill="none" stroke="#000000" stroke-linecap="round"></path><path d="M395.27114,164.49374c-2.57966,5.38963 -2.16506,20.72937 -2.16506,20.72937v10.04534h-28.18545l-11.32438,-2.30327" fill="none" stroke="#000000" stroke-linecap="round"></path><path d="M352.47771,217.78483l0.67178,-24.72809h20.88821l19.03501,2.68715v26.07165" fill="none" stroke="#000000" stroke-linecap="round"></path><path d="M392.84769,196.0362l-27.1593,0.38387l-11.99616,-2.39923" fill="none" stroke="#000000" stroke-linecap="round"></path><path d="M392.84769,197.28381l-27.73512,0.67178l-11.80422,-2.59117l12.28406,1.91939l27.54318,-0.57582" fill="none" stroke="#000000" stroke-linecap="round"></path><path d="M393.13558,198.14753l-27.54318,0.38387l-12.28407,-2.68713" fill="none" stroke="#000000" stroke-linecap="round"></path><path d="M392.94365,198.72334l-27.06333,0.57582l-11.99616,-2.68714" fill="none" stroke="#000000" stroke-linecap="round"></path></g><g stroke-width="1.75"><path d="M342.78282,212.35537v-24.85605l-0.77808,-6.78239c0,0 -0.41459,-15.33973 2.16507,-20.72936" fill="none" stroke="#000000" stroke-linecap="round"></path><path d="M342.23073,179.46824l1.05348,-16.45834l19.56172,0.69853c0,0 -0.43311,1.40592 -0.47588,2.63305c-0.09771,2.80343 -0.4814,13.81191 -0.4814,13.81191z" fill="#4d535e" stroke="#000000" stroke-linecap="butt"></path><path d="M347.19741,189.89855l-16.50671,-0.38387" fill="none" stroke="#4d535e" stroke-linecap="round"></path><path d="M334.0827,191.33368v26.5515" fill="none" stroke="#000000" stroke-linecap="round"></path><path d="M364.2082,159.8916c-2.57966,5.38963 -2.16507,20.72937 -2.16507,20.72937v10.04534h-28.18545l-11.32438,-2.30327" fill="none" stroke="#000000" stroke-linecap="round"></path><path d="M321.41477,213.18269l0.67178,-24.72808h20.88821l19.03501,2.68714v26.07166" fill="none" stroke="#000000" stroke-linecap="round"></path><path d="M361.78474,191.43406l-27.1593,0.38387l-11.99616,-2.39923" fill="none" stroke="#000000" stroke-linecap="round"></path><path d="M361.78474,192.68167l-27.73512,0.67178l-11.80422,-2.59117l12.28406,1.91939l27.54318,-0.57582" fill="none" stroke="#000000" stroke-linecap="round"></path><path d="M362.07265,193.54539l-27.54318,0.38387l-12.28407,-2.68714" fill="none" stroke="#000000" stroke-linecap="round"></path><path d="M361.88071,194.1212l-27.06333,0.57581l-11.99616,-2.68714" fill="none" stroke="#000000" stroke-linecap="round"></path></g><g stroke="#000000" stroke-linecap="round"><path d="M173.8027,186.45061l0.51729,-1.86224l23.07112,0.31037l0.31037,1.86224z" fill="none" stroke-width="1.75"></path><path d="M174.31999,210.3494v-24.62299h22.14v24.00224" fill="none" stroke-width="1.75"></path><path d="M175.0442,183.86562v-25.14173h21.82962v25.65757" fill="#4d535e" stroke-width="1.75"></path><path d="M175.0442,158.93079v-4.24178" fill="none" stroke-width="1.75"></path><path d="M196.81575,158.97618v-4.24178" fill="none" stroke-width="1.75"></path><path d="M197.35645,186.19373h-23.50794" fill="none" stroke-width="3.5"></path><path d="M176.8049,206.1298v-19.19677h17.26096v18.71281" fill="none" stroke-width="1.75"></path></g><g stroke="#000000" stroke-linecap="round"><path d="M202.8027,186.45061l0.51729,-1.86225l23.07112,0.31037l0.31037,1.86225z" fill="none" stroke-width="1.75"></path><path d="M203.31999,210.3494v-24.62299h22.14v24.00225" fill="none" stroke-width="1.75"></path><path d="M204.0442,183.86562v-25.14173h21.82962v25.65757" fill="#4d535e" stroke-width="1.75"></path><path d="M204.0442,158.93078v-4.24177" fill="none" stroke-width="1.75"></path><path d="M225.81576,158.97618v-4.24178" fill="none" stroke-width="1.75"></path><path d="M226.35647,186.19373h-23.50794" fill="none" stroke-width="3.5"></path><path d="M205.8049,206.1298v-19.19677h17.26095v18.71281" fill="none" stroke-width="1.75"></path></g><g stroke="#000000" stroke-linecap="round"><path d="M233.13603,185.45062l0.51729,-1.86225l23.07112,0.31037l0.31038,1.86225z" fill="none" stroke-width="1.75"></path><path d="M233.65332,209.3494v-24.62299h22.14v24.00225" fill="none" stroke-width="1.75"></path><path d="M234.37753,182.86562v-25.14173h21.82962v25.65757" fill="#4d535e" stroke-width="1.75"></path><path d="M234.37753,153.68902v4.24177" fill="none" stroke-width="1.75"></path><path d="M256.14905,157.97618v-4.24178" fill="none" stroke-width="1.75"></path><path d="M233.18186,185.19373h23.50794" fill="none" stroke-width="3.5"></path><path d="M236.13822,205.1298v-19.19676h17.26095v18.71281" fill="none" stroke-width="1.75"></path></g><g stroke="#000000" stroke-linecap="round"><path d="M262.13599,185.45062l0.51729,-1.86225l23.07112,0.31037l0.31038,1.86225z" fill="none" stroke-width="1.75"></path><path d="M262.65332,209.3494v-24.62299h22.14v24.00224" fill="none" stroke-width="1.75"></path><path d="M263.37752,182.86562v-25.14173h21.82962v25.65757" fill="#4d535e" stroke-width="1.75"></path><path d="M263.37752,157.93079v-4.24177" fill="none" stroke-width="1.75"></path><path d="M285.14905,157.97618v-4.24178" fill="none" stroke-width="1.75"></path><path d="M285.68978,185.19373h-23.50794" fill="none" stroke-width="3.5"></path><path d="M265.13822,205.1298v-19.19676h17.26096v18.71281" fill="none" stroke-width="1.75"></path></g><g stroke="#000000" stroke-linecap="round"><path d="M289.8027,185.45061l0.51729,-1.86225l23.07112,0.31037l0.31038,1.86225z" fill="none" stroke-width="1.75"></path><path d="M290.31998,209.3494v-24.62299h22.14v24.00225" fill="none" stroke-width="1.75"></path><path d="M291.04419,182.86562v-25.14173h21.82962v25.65757" fill="#4d535e" stroke-width="1.75"></path><path d="M291.04419,153.68901v4.24177" fill="none" stroke-width="1.75"></path><path d="M312.81576,153.7344v4.24178" fill="none" stroke-width="1.75"></path><path d="M289.84852,185.19373h23.50794" fill="none" stroke-width="3.5"></path><path d="M292.80487,205.12981v-19.19677h17.26095v18.71281" fill="none" stroke-width="1.75"></path></g></g><path d="M427.00002,272.25c0,15.74012 -83.72275,28.5 -187,28.5c-103.27725,0 -187,-12.75988 -187,-28.5c0,-15.74012 83.72275,-28.5 187,-28.5c103.27725,0 187,12.75988 187,28.5z" fill="#9c6e6b" stroke="none" stroke-width="0" stroke-linecap="butt"></path><path d="M6.10003,65.89999v-58.73476h477v58.73477z" fill-opacity="0.50196" fill="#000000" stroke="none" stroke-width="0" stroke-linecap="butt"></path><path d="M1.1,60.89999v-58.73476h477v58.73477z" fill="#2c67ff" stroke="#ffffff" stroke-width="3.65" stroke-linecap="butt"></path><path d="M194.95004,59.9l-43,-58" fill="none" stroke="#ffffff" stroke-width="3.65" stroke-linecap="round"></path><path d="M357.45004,61.15l-43,-58" fill="none" stroke="#ffffff" stroke-width="3.65" stroke-linecap="round"></path><path d="M133.65002,24.1h-111.25" fill="none" stroke="#ffffff" stroke-width="1.5" stroke-linecap="round"></path><path d="M293.65003,24.1h-111.25" fill="none" stroke="#ffffff" stroke-width="1.5" stroke-linecap="round"></path><path d="M453.65003,24.1h-111.25" fill="none" stroke="#ffffff" stroke-width="1.5" stroke-linecap="round"></path><path d="M6.20002,94.13333v-28.33333h159.66667l-15.33333,28.33333z" fill-opacity="0.50196" fill="#000000" stroke="none" stroke-width="0" stroke-linecap="butt"></path><path d="M1.20002,89.13333v-28.33333h159.66667l-15.33333,28.33333z" fill="#3d3d3d" stroke="#ffffff" stroke-width="3.65" stroke-linecap="butt"></path></g></g></svg>