<svg version="1.1" xmlns="http://www.w3.org/2000/svg" xmlns:xlink="http://www.w3.org/1999/xlink" width="570" height="423" viewBox="0,0,570,423"><g transform="translate(41.5,32.5)"><g data-paper-data="{&quot;isPaintingLayer&quot;:true}" fill-rule="nonzero" stroke-linejoin="miter" stroke-miterlimit="10" stroke-dasharray="" stroke-dashoffset="0" style="mix-blend-mode: normal"><path d="M-41.5,390.5v-423h570v423z" fill="#2c67ff" stroke="none" stroke-width="0" stroke-linecap="butt"/><text transform="translate(88.97799,60.50004) scale(1.29167,1.29167)" font-size="40" xml:space="preserve" fill="#ffffff" fill-rule="nonzero" stroke="none" stroke-width="1" stroke-linecap="butt" stroke-linejoin="miter" stroke-miterlimit="10" stroke-dasharray="" stroke-dashoffset="0" font-family="Sans Serif" font-weight="normal" text-anchor="start" style="mix-blend-mode: normal"><tspan x="0" dy="0">Substitution</tspan></text><text transform="translate(137.81003,129.5) scale(0.5,0.5)" font-size="40" xml:space="preserve" fill="#ffffff" fill-rule="nonzero" stroke="none" stroke-width="1" stroke-linecap="butt" stroke-linejoin="miter" stroke-miterlimit="10" stroke-dasharray="" stroke-dashoffset="0" font-family="Sans Serif" font-weight="normal" text-anchor="start" style="mix-blend-mode: normal"><tspan x="0" dy="0">Quizzers on the seats</tspan></text><text transform="translate(136.86003,243.5) scale(0.5,0.5)" font-size="40" xml:space="preserve" fill="#ffffff" fill-rule="nonzero" stroke="none" stroke-width="1" stroke-linecap="butt" stroke-linejoin="miter" stroke-miterlimit="10" stroke-dasharray="" stroke-dashoffset="0" font-family="Sans Serif" font-weight="normal" text-anchor="start" style="mix-blend-mode: normal"><tspan x="0" dy="0">Quizzers on the bench</tspan></text><text transform="translate(112.48004,81.76883) scale(0.5,0.5)" font-size="40" xml:space="preserve" fill="#ffffff" fill-rule="nonzero" stroke="none" stroke-width="1" stroke-linecap="butt" stroke-linejoin="miter" stroke-miterlimit="10" stroke-dasharray="" stroke-dashoffset="0" font-family="Sans Serif" font-weight="normal" text-anchor="start" style="mix-blend-mode: normal"><tspan x="0" dy="0">Click a quizzer to sub them.</tspan></text><text transform="translate(121.07159,212.76479) scale(0.35655,0.35655)" font-size="40" xml:space="preserve" fill="#ffffff" fill-rule="nonzero" stroke="none" stroke-width="1" stroke-linecap="butt" stroke-linejoin="miter" stroke-miterlimit="10" stroke-dasharray="" stroke-dashoffset="0" font-family="Sans Serif" font-weight="normal" text-anchor="start" style="mix-blend-mode: normal"><tspan x="0" dy="0">Mary</tspan></text><g><g data-paper-data="{&quot;origPos&quot;:null}" stroke="none" stroke-width="1" stroke-linecap="butt"><path d="M150.33629,182.86733c-1.10106,0.13763 -2.95908,-0.44731 -2.95908,-0.44731c0,0 -2.78704,-16.1373 -0.37848,-16.72224c4.3354,-1.16987 5.12678,16.03408 5.12678,16.03408c0,0 -0.72257,0.99783 -1.78921,1.13546z" fill="#ac752d"/><path d="M145.38156,176.57069c0,0 -3.09671,-11.3202 0.8602,-12.07718c3.4752,-0.68816 7.43211,9.97829 7.43211,9.97829z" fill="#485963"/></g><g data-paper-data="{&quot;origPos&quot;:null}" fill="#ac752d" stroke="none" stroke-width="1" stroke-linecap="butt"><g data-paper-data="{&quot;origPos&quot;:null}"><path d="M153.08892,191.05641l-2.82145,0.82578l-3.02789,-9.32454c0,0 1.06664,-1.44513 2.30533,-1.3419c0.92901,0.06882 2.51178,0.34408 2.51178,0.34408z" data-paper-data="{&quot;origPos&quot;:null}"/></g><path d="M151.89007,198.82326c-0.64807,0.09265 -0.38291,-3.01067 -0.99007,-3.06636c-0.46547,-0.04854 0.08919,1.87618 -0.06014,2.18617c-0.18309,0.31664 -1.12635,-0.19886 -1.12635,-0.19886c0,0 -0.87229,-1.75692 -1.01816,-2.67506c-0.36542,-2.03217 1.58372,-4.06457 1.58372,-4.06457l2.5038,-0.10766c0,0 1.51222,2.15686 1.56199,3.65505c0.02981,1.39692 -1.03495,3.29009 -1.03495,3.29009c0,0 -0.79223,0.96274 -1.41984,0.98121z" data-paper-data="{&quot;origPos&quot;:null,&quot;index&quot;:null,&quot;origRot&quot;:0}"/></g><path d="M128.65932,191.72929l-0.06882,-26.25323c0,0 5.23,-2.71822 9.70302,-2.78704c4.47303,-0.06882 8.23496,1.38013 9.06075,1.82744c0.79138,0.41289 1.05517,27.9698 1.05517,27.9698c0,0 -5.88375,0.96342 -9.87506,0.92901c-4.06013,-0.06882 -9.87507,-1.68598 -9.87507,-1.68598z" data-paper-data="{&quot;origPos&quot;:null}" fill="#536672" stroke="none" stroke-width="1" stroke-linecap="butt"/><g stroke="none" stroke-width="1" stroke-linecap="butt"><path d="M125.0809,183.5746c-0.8602,-0.06882 -2.1677,-0.75698 -2.1677,-0.75698c0,0 1.92684,-17.41039 6.84717,-17.30717c3.85369,-0.10323 -2.47737,17.65125 -2.47737,17.65125c0,0 -1.34191,0.48171 -2.20211,0.4129z" fill="#ac752d"/><path d="M122.98201,174.66296c0,0 4.30098,-9.73743 6.70954,-9.46217c5.71171,0.61934 0.96343,12.45566 0.96343,12.45566z" fill="#485963"/></g><g fill="#ac752d" stroke="none" stroke-width="1" stroke-linecap="butt"><path d="M123.60136,192.07335l-0.72257,-9.53099c0,0 1.37631,-0.4129 2.16769,-0.55053c1.10106,-0.20645 2.30533,1.13546 2.30533,1.13546l-1.10105,9.53099z"/><path d="M124.46155,198.64526c0,0 -1.41072,-1.65158 -1.65158,-3.0279c-0.24086,-1.47954 0.82578,-3.8881 0.82578,-3.8881l2.47737,-0.37848c0,0 2.30533,1.61717 2.33974,3.68165c0.03441,0.92901 -0.48171,2.82144 -0.48171,2.82144c0,0 -0.82578,0.68816 -1.06664,0.4129c-0.24086,-0.27526 -0.03441,-2.27092 -0.48172,-2.13329c-0.58494,0.17204 0.27527,3.16553 -0.37848,3.19994c-0.61934,0.10323 -1.58276,-0.68815 -1.58276,-0.68815z"/></g><path d="M147.61807,153.19243c0,5.40204 -7.08802,10.76968 -11.97394,10.76968c-4.88592,0 -5.74612,-5.40205 -5.74612,-10.76968c0,-5.36763 3.95691,-9.73743 8.87724,-9.73743c4.88592,-0.03441 8.84283,4.33539 8.84283,9.73743z" data-paper-data="{&quot;origPos&quot;:null}" fill="#241608" stroke="none" stroke-width="1" stroke-linecap="butt"/><g fill="#9e6b30" stroke="none" stroke-width="1" stroke-linecap="butt"><path d="M135.71293,159.38585l5.23,1.16986l-0.0344,3.13112c0,0 1.68599,0.30967 1.65158,1.27309c-0.03441,1.54835 -6.50309,2.37414 -7.845,0c-0.51612,-1.16987 0.68816,-1.58276 0.68816,-1.58276z" data-paper-data="{&quot;origPos&quot;:null}"/><path d="M134.13017,155.56657c0.27526,0.82579 0.10323,1.61718 -0.34408,1.75481c-0.48171,0.17204 -1.10105,-0.34408 -1.37632,-1.16987c-0.27526,-0.82579 -0.10323,-1.61717 0.34408,-1.7548c0.48171,-0.17204 1.10106,0.37848 1.37632,1.16986z" data-paper-data="{&quot;origPos&quot;:null}"/><path d="M144.96866,154.8096c0,4.40421 -2.71823,6.74394 -5.05796,6.84717c-4.06013,0.06882 -6.67514,-3.26875 -6.67514,-7.67296c0,-4.40421 0.75698,-7.70737 5.91816,-7.94823c3.9225,-0.20645 6.49622,3.95691 5.80806,8.67079z" data-paper-data="{&quot;origPos&quot;:null}"/></g><path d="M140.97734,159.1794c0,0.24086 -0.68815,0.75698 -1.27309,0.75698c-0.61934,0 -1.20427,-0.65375 -1.20427,-0.92901c0,-0.27526 0.75698,0 1.37632,0c0.58494,0.03441 1.10105,-0.06882 1.10105,0.17204z" fill="#000000" stroke="none" stroke-width="1" stroke-linecap="butt"/><path d="M140.04833,154.98164c0,0 0.79139,1.03224 0.75698,1.54836c0,0.24086 -0.8602,0.72257 -0.8602,0.72257" fill="none" stroke="#000000" stroke-width="1.46" stroke-linecap="round"/><path d="M132.13452,154.49993c0,0 -0.48401,-6.97615 3.37197,-9.03207c5.38173,-2.86942 8.60198,1.77201 8.60198,1.77201c0,0 -2.54618,2.06447 -5.02355,3.57842c-2.47737,1.51395 -6.9504,3.68165 -6.9504,3.68165z" data-paper-data="{&quot;origPos&quot;:null}" fill="#241608" stroke="none" stroke-width="1" stroke-linecap="butt"/><g><path d="M136.12583,152.57308c0,0 0.99783,-0.27526 1.51395,-0.27526c0.58494,-0.03441 1.27309,0.27526 1.27309,0.27526" fill="none" stroke="#000000" stroke-width="1.46" stroke-linecap="round"/><g><path d="M136.09142,154.05263c0,0 0.75698,-0.65375 1.54836,-0.58494c0.8602,0.06882 0.99783,0.51612 0.99783,0.51612" fill="none" stroke="#000000" stroke-width="1.46" stroke-linecap="round"/><path d="M137.22688,154.32789c0,-0.41289 0.30968,-0.75697 0.72257,-0.75697c0.41289,0 0.72257,0.34408 0.72257,0.75697c0,0.41289 -0.30967,0.75697 -0.72257,0.75697c-0.37849,0 -0.72257,-0.34408 -0.72257,-0.75697z" fill="#000000" stroke="none" stroke-width="1" stroke-linecap="butt"/></g></g><g><path d="M141.42465,152.53868c0,0 0.79138,-0.27526 1.37632,-0.27526c0.51612,0.03441 1.10106,0.17204 1.10106,0.17204" fill="none" stroke="#000000" stroke-width="1.46" stroke-linecap="round"/><g><path d="M141.42465,153.9494c0,0 0.17204,-0.4473 0.99783,-0.51612c0.79138,-0.06882 1.54836,0.58494 1.54836,0.58494" fill="none" stroke="#000000" stroke-width="1.46" stroke-linecap="round"/><path d="M143.04182,154.98164c-0.41289,0 -0.72257,-0.34408 -0.72257,-0.75697c0,-0.41289 0.30967,-0.75697 0.72257,-0.75697c0.41289,0 0.72257,0.34408 0.72257,0.75697c0,0.41289 -0.34408,0.75697 -0.72257,0.75697z" fill="#000000" stroke="none" stroke-width="1" stroke-linecap="butt"/></g></g><g data-paper-data="{&quot;origPos&quot;:null}" fill="#241608" stroke="none" stroke-width="1" stroke-linecap="butt"><path d="M136.09142,163.85888c0,1.89244 -0.89461,3.44079 -1.96125,3.44079c-1.06664,0 -1.96125,-1.54836 -1.96125,-3.44079c0,-1.89244 0.89461,-3.44079 1.96125,-3.44079c1.06664,0 1.96125,1.54835 1.96125,3.44079z"/><path d="M131.96247,167.78138c0,-1.47954 0.75697,-2.68382 1.68599,-2.68382c0.92901,0 1.68599,1.20428 1.68599,2.68382c0,1.47954 -0.75698,2.68382 -1.68599,2.68382c-0.92901,0 -1.68599,-1.20428 -1.68599,-2.68382z"/><path d="M132.16892,171.60065c0,-1.13546 0.58494,-2.06447 1.2731,-2.06447c0.72257,0 1.27309,0.92901 1.27309,2.06447c0,1.13546 -0.58493,2.06447 -1.27309,2.06447c-0.68816,0 -1.2731,-0.92901 -1.2731,-2.06447z"/><path d="M132.61622,174.49092c0,-0.79138 0.4129,-1.41073 0.89461,-1.41073c0.48171,0 0.8946,0.65375 0.8946,1.41073c0,0.75698 -0.41289,1.41072 -0.8946,1.41072c-0.51612,0 -0.89461,-0.61934 -0.89461,-1.41072z"/><path d="M134.61188,177.0371c0.10323,0.89461 -0.82579,1.68599 -0.82579,1.68599c0,0 -1.20428,-0.65375 -1.27309,-1.54836c-0.06882,-0.89461 0.55053,-1.65157 0.92901,-1.68598c0.37849,-0.03441 1.06664,0.65375 1.16987,1.54835z"/></g></g><text transform="translate(176.0716,212.76479) scale(0.35656,0.35656)" font-size="40" xml:space="preserve" fill="#ffffff" fill-rule="nonzero" stroke="none" stroke-width="1" stroke-linecap="butt" stroke-linejoin="miter" stroke-miterlimit="10" stroke-dasharray="" stroke-dashoffset="0" font-family="Sans Serif" font-weight="normal" text-anchor="start" style="mix-blend-mode: normal"><tspan x="0" dy="0">Mary</tspan></text><g><g data-paper-data="{&quot;origPos&quot;:null}" stroke="none" stroke-width="1" stroke-linecap="butt"><path d="M205.33629,182.86733c-1.10106,0.13763 -2.95908,-0.44731 -2.95908,-0.44731c0,0 -2.78704,-16.1373 -0.37848,-16.72224c4.3354,-1.16987 5.12678,16.03408 5.12678,16.03408c0,0 -0.72257,0.99783 -1.78921,1.13546z" fill="#ac752d"/><path d="M200.38156,176.57069c0,0 -3.09671,-11.3202 0.8602,-12.07718c3.4752,-0.68816 7.43211,9.97829 7.43211,9.97829z" fill="#485963"/></g><g data-paper-data="{&quot;origPos&quot;:null}" fill="#ac752d" stroke="none" stroke-width="1" stroke-linecap="butt"><g data-paper-data="{&quot;origPos&quot;:null}"><path d="M208.08892,191.05641l-2.82145,0.82578l-3.02789,-9.32454c0,0 1.06664,-1.44513 2.30533,-1.3419c0.92901,0.06882 2.51178,0.34408 2.51178,0.34408z" data-paper-data="{&quot;origPos&quot;:null}"/></g><path d="M206.89007,198.82326c-0.64807,0.09265 -0.38291,-3.01067 -0.99007,-3.06636c-0.46547,-0.04854 0.08919,1.87618 -0.06014,2.18617c-0.18309,0.31664 -1.12635,-0.19886 -1.12635,-0.19886c0,0 -0.87229,-1.75692 -1.01816,-2.67506c-0.36542,-2.03217 1.58372,-4.06457 1.58372,-4.06457l2.5038,-0.10766c0,0 1.51222,2.15686 1.56199,3.65505c0.02981,1.39692 -1.03495,3.29009 -1.03495,3.29009c0,0 -0.79223,0.96274 -1.41984,0.98121z" data-paper-data="{&quot;origPos&quot;:null,&quot;index&quot;:null,&quot;origRot&quot;:0}"/></g><path d="M183.65932,191.72929l-0.06882,-26.25323c0,0 5.23,-2.71822 9.70302,-2.78704c4.47303,-0.06882 8.23496,1.38013 9.06075,1.82744c0.79138,0.41289 1.05517,27.9698 1.05517,27.9698c0,0 -5.88375,0.96342 -9.87506,0.92901c-4.06013,-0.06882 -9.87507,-1.68598 -9.87507,-1.68598z" data-paper-data="{&quot;origPos&quot;:null}" fill="#536672" stroke="none" stroke-width="1" stroke-linecap="butt"/><g stroke="none" stroke-width="1" stroke-linecap="butt"><path d="M180.0809,183.5746c-0.8602,-0.06882 -2.1677,-0.75698 -2.1677,-0.75698c0,0 1.92684,-17.41039 6.84717,-17.30717c3.85369,-0.10323 -2.47737,17.65125 -2.47737,17.65125c0,0 -1.34191,0.48171 -2.20211,0.4129z" fill="#ac752d"/><path d="M177.98201,174.66296c0,0 4.30098,-9.73743 6.70954,-9.46217c5.71171,0.61934 0.96343,12.45566 0.96343,12.45566z" fill="#485963"/></g><g fill="#ac752d" stroke="none" stroke-width="1" stroke-linecap="butt"><path d="M178.60136,192.07335l-0.72257,-9.53099c0,0 1.37631,-0.4129 2.16769,-0.55053c1.10106,-0.20645 2.30533,1.13546 2.30533,1.13546l-1.10105,9.53099z"/><path d="M179.46155,198.64526c0,0 -1.41072,-1.65158 -1.65158,-3.0279c-0.24086,-1.47954 0.82578,-3.8881 0.82578,-3.8881l2.47737,-0.37848c0,0 2.30533,1.61717 2.33974,3.68165c0.03441,0.92901 -0.48171,2.82144 -0.48171,2.82144c0,0 -0.82578,0.68816 -1.06664,0.4129c-0.24086,-0.27526 -0.03441,-2.27092 -0.48172,-2.13329c-0.58494,0.17204 0.27527,3.16553 -0.37848,3.19994c-0.61934,0.10323 -1.58276,-0.68815 -1.58276,-0.68815z"/></g><path d="M202.61807,153.19243c0,5.40204 -7.08802,10.76968 -11.97394,10.76968c-4.88592,0 -5.74612,-5.40205 -5.74612,-10.76968c0,-5.36763 3.95691,-9.73743 8.87724,-9.73743c4.88592,-0.03441 8.84283,4.33539 8.84283,9.73743z" data-paper-data="{&quot;origPos&quot;:null}" fill="#241608" stroke="none" stroke-width="1" stroke-linecap="butt"/><g fill="#9e6b30" stroke="none" stroke-width="1" stroke-linecap="butt"><path d="M190.71293,159.38585l5.23,1.16986l-0.0344,3.13112c0,0 1.68599,0.30967 1.65158,1.27309c-0.03441,1.54835 -6.50309,2.37414 -7.845,0c-0.51612,-1.16987 0.68816,-1.58276 0.68816,-1.58276z" data-paper-data="{&quot;origPos&quot;:null}"/><path d="M189.13017,155.56657c0.27526,0.82579 0.10323,1.61718 -0.34408,1.75481c-0.48171,0.17204 -1.10105,-0.34408 -1.37632,-1.16987c-0.27526,-0.82579 -0.10323,-1.61717 0.34408,-1.7548c0.48171,-0.17204 1.10106,0.37848 1.37632,1.16986z" data-paper-data="{&quot;origPos&quot;:null}"/><path d="M199.96866,154.8096c0,4.40421 -2.71823,6.74394 -5.05796,6.84717c-4.06013,0.06882 -6.67514,-3.26875 -6.67514,-7.67296c0,-4.40421 0.75698,-7.70737 5.91816,-7.94823c3.9225,-0.20645 6.49622,3.95691 5.80806,8.67079z" data-paper-data="{&quot;origPos&quot;:null}"/></g><path d="M195.97734,159.1794c0,0.24086 -0.68815,0.75698 -1.27309,0.75698c-0.61934,0 -1.20427,-0.65375 -1.20427,-0.92901c0,-0.27526 0.75698,0 1.37632,0c0.58494,0.03441 1.10105,-0.06882 1.10105,0.17204z" fill="#000000" stroke="none" stroke-width="1" stroke-linecap="butt"/><path d="M195.04833,154.98164c0,0 0.79139,1.03224 0.75698,1.54836c0,0.24086 -0.8602,0.72257 -0.8602,0.72257" fill="none" stroke="#000000" stroke-width="1.46" stroke-linecap="round"/><path d="M187.13452,154.49993c0,0 -0.48401,-6.97615 3.37197,-9.03207c5.38173,-2.86942 8.60198,1.77201 8.60198,1.77201c0,0 -2.54618,2.06447 -5.02355,3.57842c-2.47737,1.51395 -6.9504,3.68165 -6.9504,3.68165z" data-paper-data="{&quot;origPos&quot;:null}" fill="#241608" stroke="none" stroke-width="1" stroke-linecap="butt"/><g><path d="M191.12583,152.57308c0,0 0.99783,-0.27526 1.51395,-0.27526c0.58494,-0.03441 1.27309,0.27526 1.27309,0.27526" fill="none" stroke="#000000" stroke-width="1.46" stroke-linecap="round"/><g><path d="M191.09142,154.05263c0,0 0.75698,-0.65375 1.54836,-0.58494c0.8602,0.06882 0.99783,0.51612 0.99783,0.51612" fill="none" stroke="#000000" stroke-width="1.46" stroke-linecap="round"/><path d="M192.22688,154.32789c0,-0.41289 0.30968,-0.75697 0.72257,-0.75697c0.41289,0 0.72257,0.34408 0.72257,0.75697c0,0.41289 -0.30967,0.75697 -0.72257,0.75697c-0.37849,0 -0.72257,-0.34408 -0.72257,-0.75697z" fill="#000000" stroke="none" stroke-width="1" stroke-linecap="butt"/></g></g><g><path d="M196.42465,152.53868c0,0 0.79138,-0.27526 1.37632,-0.27526c0.51612,0.03441 1.10106,0.17204 1.10106,0.17204" fill="none" stroke="#000000" stroke-width="1.46" stroke-linecap="round"/><g><path d="M196.42465,153.9494c0,0 0.17204,-0.4473 0.99783,-0.51612c0.79138,-0.06882 1.54836,0.58494 1.54836,0.58494" fill="none" stroke="#000000" stroke-width="1.46" stroke-linecap="round"/><path d="M198.04182,154.98164c-0.41289,0 -0.72257,-0.34408 -0.72257,-0.75697c0,-0.41289 0.30967,-0.75697 0.72257,-0.75697c0.41289,0 0.72257,0.34408 0.72257,0.75697c0,0.41289 -0.34408,0.75697 -0.72257,0.75697z" fill="#000000" stroke="none" stroke-width="1" stroke-linecap="butt"/></g></g><g data-paper-data="{&quot;origPos&quot;:null}" fill="#241608" stroke="none" stroke-width="1" stroke-linecap="butt"><path d="M191.09142,163.85888c0,1.89244 -0.89461,3.44079 -1.96125,3.44079c-1.06664,0 -1.96125,-1.54836 -1.96125,-3.44079c0,-1.89244 0.89461,-3.44079 1.96125,-3.44079c1.06664,0 1.96125,1.54835 1.96125,3.44079z"/><path d="M186.96247,167.78138c0,-1.47954 0.75697,-2.68382 1.68599,-2.68382c0.92901,0 1.68599,1.20428 1.68599,2.68382c0,1.47954 -0.75698,2.68382 -1.68599,2.68382c-0.92901,0 -1.68599,-1.20428 -1.68599,-2.68382z"/><path d="M187.16892,171.60065c0,-1.13546 0.58494,-2.06447 1.2731,-2.06447c0.72257,0 1.27309,0.92901 1.27309,2.06447c0,1.13546 -0.58493,2.06447 -1.27309,2.06447c-0.68816,0 -1.2731,-0.92901 -1.2731,-2.06447z"/><path d="M187.61622,174.49092c0,-0.79138 0.4129,-1.41073 0.89461,-1.41073c0.48171,0 0.8946,0.65375 0.8946,1.41073c0,0.75698 -0.41289,1.41072 -0.8946,1.41072c-0.51612,0 -0.89461,-0.61934 -0.89461,-1.41072z"/><path d="M189.61188,177.0371c0.10323,0.89461 -0.82579,1.68599 -0.82579,1.68599c0,0 -1.20428,-0.65375 -1.27309,-1.54836c-0.06882,-0.89461 0.55053,-1.65157 0.92901,-1.68598c0.37849,-0.03441 1.06664,0.65375 1.16987,1.54835z"/></g></g><text transform="translate(224.40493,212.76479) scale(0.35656,0.35656)" font-size="40" xml:space="preserve" fill="#ffffff" fill-rule="nonzero" stroke="none" stroke-width="1" stroke-linecap="butt" stroke-linejoin="miter" stroke-miterlimit="10" stroke-dasharray="" stroke-dashoffset="0" font-family="Sans Serif" font-weight="normal" text-anchor="start" style="mix-blend-mode: normal"><tspan x="0" dy="0">Mary</tspan></text><g><g data-paper-data="{&quot;origPos&quot;:null}" stroke="none" stroke-width="1" stroke-linecap="butt"><path d="M253.66962,182.86733c-1.10105,0.13763 -2.95908,-0.44731 -2.95908,-0.44731c0,0 -2.78704,-16.1373 -0.37848,-16.72224c4.33539,-1.16987 5.12677,16.03408 5.12677,16.03408c0,0 -0.72257,0.99783 -1.78921,1.13546z" fill="#ac752d"/><path d="M248.71489,176.57069c0,0 -3.09671,-11.3202 0.8602,-12.07718c3.4752,-0.68816 7.4321,9.97829 7.4321,9.97829z" fill="#485963"/></g><g data-paper-data="{&quot;origPos&quot;:null}" fill="#ac752d" stroke="none" stroke-width="1" stroke-linecap="butt"><g data-paper-data="{&quot;origPos&quot;:null}"><path d="M256.42225,191.05641l-2.82145,0.82578l-3.02789,-9.32454c0,0 1.06664,-1.44513 2.30533,-1.3419c0.92901,0.06882 2.51177,0.34408 2.51177,0.34408z" data-paper-data="{&quot;origPos&quot;:null}"/></g><path d="M255.2234,198.82326c-0.64807,0.09265 -0.38291,-3.01067 -0.99007,-3.06636c-0.46547,-0.04854 0.08919,1.87618 -0.06014,2.18617c-0.18309,0.31664 -1.12635,-0.19886 -1.12635,-0.19886c0,0 -0.87229,-1.75692 -1.01816,-2.67506c-0.36542,-2.03217 1.58372,-4.06457 1.58372,-4.06457l2.5038,-0.10766c0,0 1.51222,2.15686 1.56199,3.65505c0.02981,1.39692 -1.03495,3.29009 -1.03495,3.29009c0,0 -0.79222,0.96274 -1.41984,0.98121z" data-paper-data="{&quot;origPos&quot;:null,&quot;index&quot;:null,&quot;origRot&quot;:0}"/></g><path d="M231.99265,191.72929l-0.06882,-26.25323c0,0 5.23,-2.71822 9.70303,-2.78704c4.47303,-0.06882 8.23496,1.38013 9.06075,1.82744c0.79138,0.41289 1.05517,27.9698 1.05517,27.9698c0,0 -5.88375,0.96342 -9.87506,0.92901c-4.06013,-0.06882 -9.87507,-1.68598 -9.87507,-1.68598z" data-paper-data="{&quot;origPos&quot;:null}" fill="#536672" stroke="none" stroke-width="1" stroke-linecap="butt"/><g stroke="none" stroke-width="1" stroke-linecap="butt"><path d="M228.41423,183.5746c-0.8602,-0.06882 -2.1677,-0.75698 -2.1677,-0.75698c0,0 1.92684,-17.41039 6.84717,-17.30717c3.85369,-0.10323 -2.47737,17.65125 -2.47737,17.65125c0,0 -1.34191,0.48171 -2.20211,0.4129z" fill="#ac752d"/><path d="M226.31534,174.66296c0,0 4.30098,-9.73743 6.70954,-9.46217c5.71171,0.61934 0.96343,12.45566 0.96343,12.45566z" fill="#485963"/></g><g fill="#ac752d" stroke="none" stroke-width="1" stroke-linecap="butt"><path d="M226.93469,192.07335l-0.72257,-9.53099c0,0 1.37631,-0.4129 2.16769,-0.55053c1.10106,-0.20645 2.30533,1.13546 2.30533,1.13546l-1.10105,9.53099z"/><path d="M227.79488,198.64526c0,0 -1.41072,-1.65158 -1.65158,-3.0279c-0.24086,-1.47954 0.82578,-3.8881 0.82578,-3.8881l2.47737,-0.37848c0,0 2.30533,1.61717 2.33974,3.68165c0.03441,0.92901 -0.48171,2.82144 -0.48171,2.82144c0,0 -0.82578,0.68816 -1.06664,0.4129c-0.24086,-0.27526 -0.03441,-2.27092 -0.48172,-2.13329c-0.58494,0.17204 0.27527,3.16553 -0.37848,3.19994c-0.61934,0.10323 -1.58276,-0.68815 -1.58276,-0.68815z"/></g><path d="M250.9514,153.19243c0,5.40204 -7.08803,10.76968 -11.97394,10.76968c-4.88592,0 -5.74612,-5.40205 -5.74612,-10.76968c0,-5.36763 3.95691,-9.73743 8.87723,-9.73743c4.88592,-0.03441 8.84283,4.33539 8.84283,9.73743z" data-paper-data="{&quot;origPos&quot;:null}" fill="#241608" stroke="none" stroke-width="1" stroke-linecap="butt"/><g fill="#9e6b30" stroke="none" stroke-width="1" stroke-linecap="butt"><path d="M239.04626,159.38585l5.23,1.16986l-0.0344,3.13112c0,0 1.68599,0.30967 1.65158,1.27309c-0.03441,1.54835 -6.50309,2.37414 -7.845,0c-0.51612,-1.16987 0.68816,-1.58276 0.68816,-1.58276z" data-paper-data="{&quot;origPos&quot;:null}"/><path d="M237.4635,155.56657c0.27526,0.82579 0.10322,1.61718 -0.34408,1.75481c-0.48171,0.17204 -1.10105,-0.34408 -1.37632,-1.16987c-0.27526,-0.82579 -0.10323,-1.61717 0.34408,-1.7548c0.48171,-0.17204 1.10106,0.37848 1.37632,1.16986z" data-paper-data="{&quot;origPos&quot;:null}"/><path d="M248.30199,154.8096c0,4.40421 -2.71823,6.74394 -5.05796,6.84717c-4.06013,0.06882 -6.67514,-3.26875 -6.67514,-7.67296c0,-4.40421 0.75698,-7.70737 5.91816,-7.94823c3.9225,-0.20645 6.49622,3.95691 5.80805,8.67079z" data-paper-data="{&quot;origPos&quot;:null}"/></g><path d="M244.31067,159.1794c0,0.24086 -0.68816,0.75698 -1.27309,0.75698c-0.61934,0 -1.20427,-0.65375 -1.20427,-0.92901c0,-0.27526 0.75698,0 1.37632,0c0.58493,0.03441 1.10105,-0.06882 1.10105,0.17204z" fill="#000000" stroke="none" stroke-width="1" stroke-linecap="butt"/><path d="M243.38166,154.98164c0,0 0.79139,1.03224 0.75698,1.54836c0,0.24086 -0.8602,0.72257 -0.8602,0.72257" fill="none" stroke="#000000" stroke-width="1.46" stroke-linecap="round"/><path d="M235.46785,154.49993c0,0 -0.48401,-6.97615 3.37197,-9.03207c5.38173,-2.86942 8.60198,1.77201 8.60198,1.77201c0,0 -2.54618,2.06447 -5.02355,3.57842c-2.47737,1.51395 -6.9504,3.68165 -6.9504,3.68165z" data-paper-data="{&quot;origPos&quot;:null}" fill="#241608" stroke="none" stroke-width="1" stroke-linecap="butt"/><g><path d="M239.45916,152.57308c0,0 0.99782,-0.27526 1.51394,-0.27526c0.58494,-0.03441 1.2731,0.27526 1.2731,0.27526" fill="none" stroke="#000000" stroke-width="1.46" stroke-linecap="round"/><g><path d="M239.42475,154.05263c0,0 0.75698,-0.65375 1.54836,-0.58494c0.8602,0.06882 0.99783,0.51612 0.99783,0.51612" fill="none" stroke="#000000" stroke-width="1.46" stroke-linecap="round"/><path d="M240.56021,154.32789c0,-0.41289 0.30968,-0.75697 0.72257,-0.75697c0.41289,0 0.72256,0.34408 0.72256,0.75697c0,0.41289 -0.30967,0.75697 -0.72256,0.75697c-0.37849,0 -0.72257,-0.34408 -0.72257,-0.75697z" fill="#000000" stroke="none" stroke-width="1" stroke-linecap="butt"/></g></g><g><path d="M244.75798,152.53868c0,0 0.79138,-0.27526 1.37632,-0.27526c0.51612,0.03441 1.10105,0.17204 1.10105,0.17204" fill="none" stroke="#000000" stroke-width="1.46" stroke-linecap="round"/><g><path d="M244.75798,153.9494c0,0 0.17204,-0.4473 0.99783,-0.51612c0.79138,-0.06882 1.54836,0.58494 1.54836,0.58494" fill="none" stroke="#000000" stroke-width="1.46" stroke-linecap="round"/><path d="M246.37515,154.98164c-0.4129,0 -0.72257,-0.34408 -0.72257,-0.75697c0,-0.41289 0.30967,-0.75697 0.72257,-0.75697c0.41289,0 0.72256,0.34408 0.72256,0.75697c0,0.41289 -0.34408,0.75697 -0.72256,0.75697z" fill="#000000" stroke="none" stroke-width="1" stroke-linecap="butt"/></g></g><g data-paper-data="{&quot;origPos&quot;:null}" fill="#241608" stroke="none" stroke-width="1" stroke-linecap="butt"><path d="M239.42475,163.85888c0,1.89244 -0.8946,3.44079 -1.96125,3.44079c-1.06664,0 -1.96126,-1.54836 -1.96126,-3.44079c0,-1.89244 0.89461,-3.44079 1.96126,-3.44079c1.06664,0 1.96125,1.54835 1.96125,3.44079z"/><path d="M235.2958,167.78138c0,-1.47954 0.75697,-2.68382 1.68599,-2.68382c0.92901,0 1.68599,1.20428 1.68599,2.68382c0,1.47954 -0.75698,2.68382 -1.68599,2.68382c-0.92901,0 -1.68599,-1.20428 -1.68599,-2.68382z"/><path d="M235.50225,171.60065c0,-1.13546 0.58494,-2.06447 1.2731,-2.06447c0.72257,0 1.27309,0.92901 1.27309,2.06447c0,1.13546 -0.58493,2.06447 -1.27309,2.06447c-0.68816,0 -1.2731,-0.92901 -1.2731,-2.06447z"/><path d="M235.94955,174.49092c0,-0.79138 0.4129,-1.41073 0.89461,-1.41073c0.48171,0 0.89461,0.65375 0.89461,1.41073c0,0.75698 -0.4129,1.41072 -0.89461,1.41072c-0.51612,0 -0.89461,-0.61934 -0.89461,-1.41072z"/><path d="M237.94521,177.0371c0.10322,0.89461 -0.82579,1.68599 -0.82579,1.68599c0,0 -1.20428,-0.65375 -1.27309,-1.54836c-0.06882,-0.89461 0.55053,-1.65157 0.92901,-1.68598c0.37849,-0.03441 1.06664,0.65375 1.16987,1.54835z"/></g></g><text transform="translate(274.0716,212.43146) scale(0.35656,0.35656)" font-size="40" xml:space="preserve" fill="#ffffff" fill-rule="nonzero" stroke="none" stroke-width="1" stroke-linecap="butt" stroke-linejoin="miter" stroke-miterlimit="10" stroke-dasharray="" stroke-dashoffset="0" font-family="Sans Serif" font-weight="normal" text-anchor="start" style="mix-blend-mode: normal"><tspan x="0" dy="0">Mary</tspan></text><g><g data-paper-data="{&quot;origPos&quot;:null}" stroke="none" stroke-width="1" stroke-linecap="butt"><path d="M303.33629,182.53399c-1.10105,0.13763 -2.95908,-0.44731 -2.95908,-0.44731c0,0 -2.78704,-16.1373 -0.37849,-16.72224c4.3354,-1.16987 5.12678,16.03408 5.12678,16.03408c0,0 -0.72256,0.99783 -1.78921,1.13546z" fill="#ac752d"/><path d="M298.38156,176.23735c0,0 -3.09671,-11.3202 0.8602,-12.07718c3.4752,-0.68816 7.4321,9.97829 7.4321,9.97829z" fill="#485963"/></g><g data-paper-data="{&quot;origPos&quot;:null}" fill="#ac752d" stroke="none" stroke-width="1" stroke-linecap="butt"><g data-paper-data="{&quot;origPos&quot;:null}"><path d="M306.08892,190.72308l-2.82145,0.82578l-3.0279,-9.32454c0,0 1.06665,-1.44513 2.30533,-1.3419c0.92901,0.06882 2.51178,0.34408 2.51178,0.34408z" data-paper-data="{&quot;origPos&quot;:null}"/></g><path d="M304.89007,198.48992c-0.64806,0.09265 -0.38291,-3.01067 -0.99007,-3.06636c-0.46548,-0.04854 0.08919,1.87618 -0.06014,2.18617c-0.18309,0.31664 -1.12635,-0.19886 -1.12635,-0.19886c0,0 -0.87229,-1.75692 -1.01816,-2.67506c-0.36542,-2.03217 1.58371,-4.06457 1.58371,-4.06457l2.5038,-0.10766c0,0 1.51222,2.15686 1.56199,3.65505c0.02981,1.39692 -1.03495,3.29009 -1.03495,3.29009c0,0 -0.79223,0.96274 -1.41984,0.98121z" data-paper-data="{&quot;origPos&quot;:null,&quot;index&quot;:null,&quot;origRot&quot;:0}"/></g><path d="M281.65932,191.39595l-0.06881,-26.25323c0,0 5.23,-2.71822 9.70302,-2.78704c4.47303,-0.06882 8.23496,1.38013 9.06075,1.82744c0.79138,0.41289 1.05517,27.9698 1.05517,27.9698c0,0 -5.88375,0.96342 -9.87507,0.92901c-4.06013,-0.06882 -9.87507,-1.68598 -9.87507,-1.68598z" data-paper-data="{&quot;origPos&quot;:null}" fill="#536672" stroke="none" stroke-width="1" stroke-linecap="butt"/><g stroke="none" stroke-width="1" stroke-linecap="butt"><path d="M278.0809,183.24127c-0.8602,-0.06882 -2.1677,-0.75698 -2.1677,-0.75698c0,0 1.92685,-17.41039 6.84717,-17.30717c3.85369,-0.10323 -2.47737,17.65125 -2.47737,17.65125c0,0 -1.34191,0.48171 -2.20211,0.4129z" fill="#ac752d"/><path d="M275.98201,174.32962c0,0 4.30099,-9.73743 6.70954,-9.46217c5.71171,0.61934 0.96343,12.45566 0.96343,12.45566z" fill="#485963"/></g><g fill="#ac752d" stroke="none" stroke-width="1" stroke-linecap="butt"><path d="M276.60136,191.74002l-0.72257,-9.53099c0,0 1.37631,-0.4129 2.16769,-0.55053c1.10106,-0.20645 2.30533,1.13546 2.30533,1.13546l-1.10105,9.53099z"/><path d="M277.46155,198.31193c0,0 -1.41072,-1.65158 -1.65157,-3.0279c-0.24086,-1.47954 0.82578,-3.8881 0.82578,-3.8881l2.47737,-0.37848c0,0 2.30533,1.61717 2.33974,3.68165c0.03441,0.92901 -0.48171,2.82144 -0.48171,2.82144c0,0 -0.82578,0.68816 -1.06664,0.4129c-0.24086,-0.27526 -0.03441,-2.27092 -0.48172,-2.13329c-0.58494,0.17204 0.27527,3.16553 -0.37849,3.19994c-0.61934,0.10323 -1.58276,-0.68815 -1.58276,-0.68815z"/></g><path d="M300.61807,152.85909c0,5.40204 -7.08803,10.76968 -11.97395,10.76968c-4.88592,0 -5.74612,-5.40205 -5.74612,-10.76968c0,-5.36763 3.95691,-9.73743 8.87723,-9.73743c4.88592,-0.03441 8.84283,4.33539 8.84283,9.73743z" data-paper-data="{&quot;origPos&quot;:null}" fill="#241608" stroke="none" stroke-width="1" stroke-linecap="butt"/><g fill="#9e6b30" stroke="none" stroke-width="1" stroke-linecap="butt"><path d="M288.71293,159.05252l5.23,1.16986l-0.0344,3.13112c0,0 1.68598,0.30967 1.65157,1.27309c-0.03441,1.54835 -6.50309,2.37414 -7.845,0c-0.51612,-1.16987 0.68816,-1.58276 0.68816,-1.58276z" data-paper-data="{&quot;origPos&quot;:null}"/><path d="M287.13017,155.23324c0.27526,0.82579 0.10322,1.61718 -0.34408,1.75481c-0.48171,0.17204 -1.10105,-0.34408 -1.37632,-1.16987c-0.27526,-0.82579 -0.10323,-1.61717 0.34408,-1.7548c0.48171,-0.17204 1.10106,0.37848 1.37632,1.16986z" data-paper-data="{&quot;origPos&quot;:null}"/><path d="M297.96866,154.47627c0,4.40421 -2.71823,6.74394 -5.05796,6.84717c-4.06013,0.06882 -6.67514,-3.26875 -6.67514,-7.67296c0,-4.40421 0.75698,-7.70737 5.91816,-7.94823c3.9225,-0.20645 6.49621,3.95691 5.80805,8.67079z" data-paper-data="{&quot;origPos&quot;:null}"/></g><path d="M293.97734,158.84607c0,0.24086 -0.68816,0.75698 -1.27309,0.75698c-0.61934,0 -1.20427,-0.65375 -1.20427,-0.92901c0,-0.27526 0.75697,0 1.37631,0c0.58493,0.03441 1.10105,-0.06882 1.10105,0.17204z" fill="#000000" stroke="none" stroke-width="1" stroke-linecap="butt"/><path d="M293.04833,154.6483c0,0 0.79138,1.03224 0.75697,1.54836c0,0.24086 -0.8602,0.72257 -0.8602,0.72257" fill="none" stroke="#000000" stroke-width="1.46" stroke-linecap="round"/><path d="M285.13452,154.16659c0,0 -0.48401,-6.97615 3.37197,-9.03207c5.38173,-2.86942 8.60197,1.77201 8.60197,1.77201c0,0 -2.54618,2.06447 -5.02355,3.57842c-2.47737,1.51395 -6.9504,3.68165 -6.9504,3.68165z" data-paper-data="{&quot;origPos&quot;:null}" fill="#241608" stroke="none" stroke-width="1" stroke-linecap="butt"/><g><path d="M289.12583,152.23975c0,0 0.99782,-0.27526 1.51394,-0.27526c0.58493,-0.03441 1.2731,0.27526 1.2731,0.27526" fill="none" stroke="#000000" stroke-width="1.46" stroke-linecap="round"/><g><path d="M289.09142,153.71929c0,0 0.75697,-0.65375 1.54835,-0.58494c0.86019,0.06882 0.99783,0.51612 0.99783,0.51612" fill="none" stroke="#000000" stroke-width="1.46" stroke-linecap="round"/><path d="M290.22688,153.99455c0,-0.41289 0.30968,-0.75697 0.72257,-0.75697c0.41289,0 0.72256,0.34408 0.72256,0.75697c0,0.41289 -0.30967,0.75697 -0.72256,0.75697c-0.37849,0 -0.72257,-0.34408 -0.72257,-0.75697z" fill="#000000" stroke="none" stroke-width="1" stroke-linecap="butt"/></g></g><g><path d="M294.42465,152.20534c0,0 0.79138,-0.27526 1.37632,-0.27526c0.51612,0.03441 1.10105,0.17204 1.10105,0.17204" fill="none" stroke="#000000" stroke-width="1.46" stroke-linecap="round"/><g><path d="M294.42465,153.61606c0,0 0.17204,-0.4473 0.99783,-0.51612c0.79138,-0.06882 1.54835,0.58494 1.54835,0.58494" fill="none" stroke="#000000" stroke-width="1.46" stroke-linecap="round"/><path d="M296.04182,154.6483c-0.41289,0 -0.72256,-0.34408 -0.72256,-0.75697c0,-0.41289 0.30967,-0.75697 0.72256,-0.75697c0.41289,0 0.72257,0.34408 0.72257,0.75697c0,0.41289 -0.34408,0.75697 -0.72257,0.75697z" fill="#000000" stroke="none" stroke-width="1" stroke-linecap="butt"/></g></g><g data-paper-data="{&quot;origPos&quot;:null}" fill="#241608" stroke="none" stroke-width="1" stroke-linecap="butt"><path d="M289.09142,163.52554c0,1.89244 -0.89461,3.44079 -1.96125,3.44079c-1.06664,0 -1.96126,-1.54836 -1.96126,-3.44079c0,-1.89244 0.89461,-3.44079 1.96126,-3.44079c1.06664,0 1.96125,1.54835 1.96125,3.44079z"/><path d="M284.96247,167.44804c0,-1.47954 0.75697,-2.68382 1.68599,-2.68382c0.92901,0 1.68599,1.20428 1.68599,2.68382c0,1.47954 -0.75698,2.68382 -1.68599,2.68382c-0.92901,0 -1.68599,-1.20428 -1.68599,-2.68382z"/><path d="M285.16892,171.26732c0,-1.13546 0.58494,-2.06447 1.2731,-2.06447c0.72257,0 1.27309,0.92901 1.27309,2.06447c0,1.13546 -0.58493,2.06447 -1.27309,2.06447c-0.68816,0 -1.2731,-0.92901 -1.2731,-2.06447z"/><path d="M285.61622,174.15758c0,-0.79138 0.4129,-1.41073 0.89461,-1.41073c0.48171,0 0.89461,0.65375 0.89461,1.41073c0,0.75698 -0.4129,1.41072 -0.89461,1.41072c-0.51612,0 -0.89461,-0.61934 -0.89461,-1.41072z"/><path d="M287.61188,176.70376c0.10323,0.89461 -0.82579,1.68599 -0.82579,1.68599c0,0 -1.20428,-0.65375 -1.27309,-1.54836c-0.06882,-0.89461 0.55053,-1.65157 0.92901,-1.68598c0.37849,-0.03441 1.06664,0.65375 1.16987,1.54835z"/></g></g><text transform="translate(324.0716,212.43146) scale(0.35656,0.35656)" font-size="40" xml:space="preserve" fill="#ffffff" fill-rule="nonzero" stroke="none" stroke-width="1" stroke-linecap="butt" stroke-linejoin="miter" stroke-miterlimit="10" stroke-dasharray="" stroke-dashoffset="0" font-family="Sans Serif" font-weight="normal" text-anchor="start" style="mix-blend-mode: normal"><tspan x="0" dy="0">Mary</tspan></text><g><g data-paper-data="{&quot;origPos&quot;:null}" stroke="none" stroke-width="1" stroke-linecap="butt"><path d="M353.33629,182.53399c-1.10105,0.13763 -2.95908,-0.44731 -2.95908,-0.44731c0,0 -2.78704,-16.1373 -0.37849,-16.72224c4.3354,-1.16987 5.12678,16.03408 5.12678,16.03408c0,0 -0.72256,0.99783 -1.78921,1.13546z" fill="#ac752d"/><path d="M348.38156,176.23735c0,0 -3.09671,-11.3202 0.8602,-12.07718c3.4752,-0.68816 7.4321,9.97829 7.4321,9.97829z" fill="#485963"/></g><g data-paper-data="{&quot;origPos&quot;:null}" fill="#ac752d" stroke="none" stroke-width="1" stroke-linecap="butt"><g data-paper-data="{&quot;origPos&quot;:null}"><path d="M356.08892,190.72308l-2.82145,0.82578l-3.0279,-9.32454c0,0 1.06665,-1.44513 2.30533,-1.3419c0.92901,0.06882 2.51178,0.34408 2.51178,0.34408z" data-paper-data="{&quot;origPos&quot;:null}"/></g><path d="M354.89007,198.48992c-0.64806,0.09265 -0.38291,-3.01067 -0.99007,-3.06636c-0.46548,-0.04854 0.08919,1.87618 -0.06014,2.18617c-0.18309,0.31664 -1.12635,-0.19886 -1.12635,-0.19886c0,0 -0.87229,-1.75692 -1.01816,-2.67506c-0.36542,-2.03217 1.58371,-4.06457 1.58371,-4.06457l2.5038,-0.10766c0,0 1.51222,2.15686 1.56199,3.65505c0.02981,1.39692 -1.03495,3.29009 -1.03495,3.29009c0,0 -0.79223,0.96274 -1.41984,0.98121z" data-paper-data="{&quot;origPos&quot;:null,&quot;index&quot;:null,&quot;origRot&quot;:0}"/></g><path d="M331.65932,191.39595l-0.06881,-26.25323c0,0 5.23,-2.71822 9.70302,-2.78704c4.47303,-0.06882 8.23496,1.38013 9.06075,1.82744c0.79138,0.41289 1.05517,27.9698 1.05517,27.9698c0,0 -5.88375,0.96342 -9.87507,0.92901c-4.06013,-0.06882 -9.87507,-1.68598 -9.87507,-1.68598z" data-paper-data="{&quot;origPos&quot;:null}" fill="#536672" stroke="none" stroke-width="1" stroke-linecap="butt"/><g stroke="none" stroke-width="1" stroke-linecap="butt"><path d="M328.0809,183.24127c-0.86019,-0.06882 -2.1677,-0.75698 -2.1677,-0.75698c0,0 1.92685,-17.41039 6.84717,-17.30717c3.85368,-0.10323 -2.47737,17.65125 -2.47737,17.65125c0,0 -1.34191,0.48171 -2.20211,0.4129z" fill="#ac752d"/><path d="M325.98201,174.32962c0,0 4.30099,-9.73743 6.70954,-9.46217c5.71171,0.61934 0.96342,12.45566 0.96342,12.45566z" fill="#485963"/></g><g fill="#ac752d" stroke="none" stroke-width="1" stroke-linecap="butt"><path d="M326.60136,191.74002l-0.72257,-9.53099c0,0 1.37632,-0.4129 2.1677,-0.55053c1.10105,-0.20645 2.30533,1.13546 2.30533,1.13546l-1.10105,9.53099z"/><path d="M327.46155,198.31193c0,0 -1.41072,-1.65158 -1.65157,-3.0279c-0.24086,-1.47954 0.82578,-3.8881 0.82578,-3.8881l2.47737,-0.37848c0,0 2.30533,1.61717 2.33974,3.68165c0.03441,0.92901 -0.48172,2.82144 -0.48172,2.82144c0,0 -0.82578,0.68816 -1.06664,0.4129c-0.24086,-0.27526 -0.03441,-2.27092 -0.48172,-2.13329c-0.58493,0.17204 0.27526,3.16553 -0.37849,3.19994c-0.61934,0.10323 -1.58276,-0.68815 -1.58276,-0.68815z"/></g><path d="M350.61807,152.85909c0,5.40204 -7.08803,10.76968 -11.97395,10.76968c-4.88592,0 -5.74612,-5.40205 -5.74612,-10.76968c0,-5.36763 3.95691,-9.73743 8.87723,-9.73743c4.88592,-0.03441 8.84283,4.33539 8.84283,9.73743z" data-paper-data="{&quot;origPos&quot;:null}" fill="#241608" stroke="none" stroke-width="1" stroke-linecap="butt"/><g fill="#9e6b30" stroke="none" stroke-width="1" stroke-linecap="butt"><path d="M338.71293,159.05252l5.23,1.16986l-0.0344,3.13112c0,0 1.68598,0.30967 1.65157,1.27309c-0.03441,1.54835 -6.50309,2.37414 -7.845,0c-0.51612,-1.16987 0.68816,-1.58276 0.68816,-1.58276z" data-paper-data="{&quot;origPos&quot;:null}"/><path d="M337.13017,155.23324c0.27526,0.82579 0.10322,1.61718 -0.34408,1.75481c-0.48171,0.17204 -1.10105,-0.34408 -1.37631,-1.16987c-0.27526,-0.82579 -0.10323,-1.61717 0.34407,-1.7548c0.48171,-0.17204 1.10106,0.37848 1.37632,1.16986z" data-paper-data="{&quot;origPos&quot;:null}"/><path d="M347.96866,154.47627c0,4.40421 -2.71823,6.74394 -5.05796,6.84717c-4.06013,0.06882 -6.67513,-3.26875 -6.67513,-7.67296c0,-4.40421 0.75698,-7.70737 5.91816,-7.94823c3.9225,-0.20645 6.49621,3.95691 5.80805,8.67079z" data-paper-data="{&quot;origPos&quot;:null}"/></g><path d="M343.97734,158.84607c0,0.24086 -0.68816,0.75698 -1.27309,0.75698c-0.61934,0 -1.20427,-0.65375 -1.20427,-0.92901c0,-0.27526 0.75697,0 1.37631,0c0.58493,0.03441 1.10105,-0.06882 1.10105,0.17204z" fill="#000000" stroke="none" stroke-width="1" stroke-linecap="butt"/><path d="M343.04833,154.6483c0,0 0.79138,1.03224 0.75697,1.54836c0,0.24086 -0.8602,0.72257 -0.8602,0.72257" fill="none" stroke="#000000" stroke-width="1.46" stroke-linecap="round"/><path d="M335.13452,154.16659c0,0 -0.48401,-6.97615 3.37197,-9.03207c5.38173,-2.86942 8.60197,1.77201 8.60197,1.77201c0,0 -2.54618,2.06447 -5.02355,3.57842c-2.47737,1.51395 -6.95039,3.68165 -6.95039,3.68165z" data-paper-data="{&quot;origPos&quot;:null}" fill="#241608" stroke="none" stroke-width="1" stroke-linecap="butt"/><g><path d="M339.12583,152.23975c0,0 0.99782,-0.27526 1.51394,-0.27526c0.58493,-0.03441 1.2731,0.27526 1.2731,0.27526" fill="none" stroke="#000000" stroke-width="1.46" stroke-linecap="round"/><g><path d="M339.09142,153.71929c0,0 0.75697,-0.65375 1.54835,-0.58494c0.86019,0.06882 0.99783,0.51612 0.99783,0.51612" fill="none" stroke="#000000" stroke-width="1.46" stroke-linecap="round"/><path d="M340.22688,153.99455c0,-0.41289 0.30968,-0.75697 0.72257,-0.75697c0.41289,0 0.72256,0.34408 0.72256,0.75697c0,0.41289 -0.30967,0.75697 -0.72256,0.75697c-0.37849,0 -0.72257,-0.34408 -0.72257,-0.75697z" fill="#000000" stroke="none" stroke-width="1" stroke-linecap="butt"/></g></g><g><path d="M344.42465,152.20534c0,0 0.79138,-0.27526 1.37632,-0.27526c0.51612,0.03441 1.10105,0.17204 1.10105,0.17204" fill="none" stroke="#000000" stroke-width="1.46" stroke-linecap="round"/><g><path d="M344.42465,153.61606c0,0 0.17204,-0.4473 0.99783,-0.51612c0.79138,-0.06882 1.54835,0.58494 1.54835,0.58494" fill="none" stroke="#000000" stroke-width="1.46" stroke-linecap="round"/><path d="M346.04182,154.6483c-0.41289,0 -0.72256,-0.34408 -0.72256,-0.75697c0,-0.41289 0.30967,-0.75697 0.72256,-0.75697c0.41289,0 0.72257,0.34408 0.72257,0.75697c0,0.41289 -0.34408,0.75697 -0.72257,0.75697z" fill="#000000" stroke="none" stroke-width="1" stroke-linecap="butt"/></g></g><g data-paper-data="{&quot;origPos&quot;:null}" fill="#241608" stroke="none" stroke-width="1" stroke-linecap="butt"><path d="M339.09142,163.52554c0,1.89244 -0.89461,3.44079 -1.96125,3.44079c-1.06664,0 -1.96125,-1.54836 -1.96125,-3.44079c0,-1.89244 0.89461,-3.44079 1.96125,-3.44079c1.06664,0 1.96125,1.54835 1.96125,3.44079z"/><path d="M334.96247,167.44804c0,-1.47954 0.75697,-2.68382 1.68599,-2.68382c0.92901,0 1.68599,1.20428 1.68599,2.68382c0,1.47954 -0.75698,2.68382 -1.68599,2.68382c-0.92901,0 -1.68599,-1.20428 -1.68599,-2.68382z"/><path d="M335.16892,171.26732c0,-1.13546 0.58493,-2.06447 1.27309,-2.06447c0.72256,0 1.27309,0.92901 1.27309,2.06447c0,1.13546 -0.58493,2.06447 -1.27309,2.06447c-0.68816,0 -1.27309,-0.92901 -1.27309,-2.06447z"/><path d="M335.61622,174.15758c0,-0.79138 0.41289,-1.41073 0.89461,-1.41073c0.48171,0 0.89461,0.65375 0.89461,1.41073c0,0.75698 -0.41289,1.41072 -0.89461,1.41072c-0.51612,0 -0.89461,-0.61934 -0.89461,-1.41072z"/><path d="M337.61188,176.70376c0.10323,0.89461 -0.82579,1.68599 -0.82579,1.68599c0,0 -1.20428,-0.65375 -1.2731,-1.54836c-0.06881,-0.89461 0.55053,-1.65157 0.92901,-1.68598c0.37849,-0.03441 1.06664,0.65375 1.16987,1.54835z"/></g></g><text transform="translate(121.0716,323.76479) scale(0.35656,0.35656)" font-size="40" xml:space="preserve" fill="#ffffff" fill-rule="nonzero" stroke="none" stroke-width="1" stroke-linecap="butt" stroke-linejoin="miter" stroke-miterlimit="10" stroke-dasharray="" stroke-dashoffset="0" font-family="Sans Serif" font-weight="normal" text-anchor="start" style="mix-blend-mode: normal"><tspan x="0" dy="0">Mary</tspan></text><g><g data-paper-data="{&quot;origPos&quot;:null}" stroke="none" stroke-width="1" stroke-linecap="butt"><path d="M150.33629,293.86733c-1.10106,0.13763 -2.95908,-0.4473 -2.95908,-0.4473c0,0 -2.78704,-16.1373 -0.37848,-16.72224c4.3354,-1.16987 5.12677,16.03408 5.12677,16.03408c0,0 -0.72257,0.99783 -1.78921,1.13546z" fill="#ac752d"/><path d="M145.38156,287.57069c0,0 -3.09671,-11.3202 0.8602,-12.07718c3.4752,-0.68816 7.43211,9.97829 7.43211,9.97829z" fill="#485963"/></g><g data-paper-data="{&quot;origPos&quot;:null}" fill="#ac752d" stroke="none" stroke-width="1" stroke-linecap="butt"><g data-paper-data="{&quot;origPos&quot;:null}"><path d="M153.08892,302.05641l-2.82145,0.82578l-3.0279,-9.32454c0,0 1.06664,-1.44513 2.30533,-1.3419c0.92901,0.06882 2.51178,0.34408 2.51178,0.34408z" data-paper-data="{&quot;origPos&quot;:null}"/></g><path d="M151.89007,309.82326c-0.64807,0.09264 -0.38291,-3.01067 -0.99007,-3.06637c-0.46547,-0.04854 0.08919,1.87618 -0.06014,2.18617c-0.18309,0.31664 -1.12635,-0.19886 -1.12635,-0.19886c0,0 -0.87229,-1.75692 -1.01816,-2.67506c-0.36542,-2.03217 1.58371,-4.06457 1.58371,-4.06457l2.5038,-0.10766c0,0 1.51222,2.15686 1.56199,3.65505c0.02981,1.39691 -1.03495,3.29009 -1.03495,3.29009c0,0 -0.79223,0.96274 -1.41984,0.98121z" data-paper-data="{&quot;origPos&quot;:null,&quot;index&quot;:null,&quot;origRot&quot;:0}"/></g><path d="M128.65932,302.72929l-0.06882,-26.25323c0,0 5.23,-2.71822 9.70302,-2.78704c4.47303,-0.06882 8.23496,1.38013 9.06075,1.82744c0.79138,0.41289 1.05517,27.9698 1.05517,27.9698c0,0 -5.88375,0.96342 -9.87507,0.92901c-4.06013,-0.06881 -9.87506,-1.68598 -9.87506,-1.68598z" data-paper-data="{&quot;origPos&quot;:null}" fill="#536672" stroke="none" stroke-width="1" stroke-linecap="butt"/><g stroke="none" stroke-width="1" stroke-linecap="butt"><path d="M125.0809,294.5746c-0.8602,-0.06882 -2.1677,-0.75698 -2.1677,-0.75698c0,0 1.92684,-17.41039 6.84717,-17.30717c3.85369,-0.10322 -2.47737,17.65125 -2.47737,17.65125c0,0 -1.34191,0.48171 -2.20211,0.4129z" fill="#ac752d"/><path d="M122.98201,285.66296c0,0 4.30098,-9.73744 6.70954,-9.46217c5.71171,0.61934 0.96343,12.45565 0.96343,12.45565z" fill="#485963"/></g><g fill="#ac752d" stroke="none" stroke-width="1" stroke-linecap="butt"><path d="M123.60136,303.07335l-0.72257,-9.53098c0,0 1.37632,-0.4129 2.1677,-0.55053c1.10105,-0.20645 2.30533,1.13546 2.30533,1.13546l-1.10105,9.53099z"/><path d="M124.46155,309.64526c0,0 -1.41072,-1.65158 -1.65157,-3.0279c-0.24085,-1.47954 0.82579,-3.88809 0.82579,-3.88809l2.47737,-0.37849c0,0 2.30533,1.61717 2.33974,3.68165c0.03441,0.92902 -0.48171,2.82145 -0.48171,2.82145c0,0 -0.82578,0.68816 -1.06664,0.41289c-0.24086,-0.27526 -0.03441,-2.27092 -0.48172,-2.13329c-0.58494,0.17204 0.27526,3.16553 -0.37849,3.19994c-0.61934,0.10323 -1.58276,-0.68815 -1.58276,-0.68815z"/></g><path d="M147.61807,264.19242c0,5.40204 -7.08803,10.76968 -11.97395,10.76968c-4.88592,0 -5.74612,-5.40204 -5.74612,-10.76968c0,-5.36763 3.95691,-9.73743 8.87724,-9.73743c4.88592,-0.03441 8.84283,4.3354 8.84283,9.73743z" data-paper-data="{&quot;origPos&quot;:null}" fill="#241608" stroke="none" stroke-width="1" stroke-linecap="butt"/><g fill="#9e6b30" stroke="none" stroke-width="1" stroke-linecap="butt"><path d="M135.71293,270.38585l5.23,1.16986l-0.0344,3.13112c0,0 1.68599,0.30967 1.65158,1.27309c-0.03441,1.54836 -6.50309,2.37414 -7.845,0c-0.51612,-1.16987 0.68816,-1.58276 0.68816,-1.58276z" data-paper-data="{&quot;origPos&quot;:null}"/><path d="M134.13017,266.56657c0.27526,0.82579 0.10323,1.61717 -0.34408,1.7548c-0.48171,0.17204 -1.10105,-0.34408 -1.37632,-1.16987c-0.27526,-0.82579 -0.10323,-1.61717 0.34408,-1.7548c0.48171,-0.17204 1.10106,0.37849 1.37632,1.16987z" data-paper-data="{&quot;origPos&quot;:null}"/><path d="M144.96866,265.8096c0,4.40421 -2.71823,6.74394 -5.05796,6.84717c-4.06013,0.06882 -6.67514,-3.26875 -6.67514,-7.67296c0,-4.40421 0.75698,-7.70737 5.91816,-7.94823c3.9225,-0.20644 6.49622,3.95691 5.80805,8.67079z" data-paper-data="{&quot;origPos&quot;:null}"/></g><path d="M140.97734,270.1794c0,0.24086 -0.68815,0.75698 -1.27309,0.75698c-0.61934,0 -1.20427,-0.65375 -1.20427,-0.92901c0,-0.27526 0.75698,0 1.37632,0c0.58494,0.03441 1.10105,-0.06882 1.10105,0.17204z" fill="#000000" stroke="none" stroke-width="1" stroke-linecap="butt"/><path d="M140.04833,265.98164c0,0 0.79139,1.03224 0.75698,1.54836c0,0.24086 -0.8602,0.72257 -0.8602,0.72257" fill="none" stroke="#000000" stroke-width="1.46" stroke-linecap="round"/><path d="M132.13452,265.49992c0,0 -0.48401,-6.97614 3.37197,-9.03207c5.38173,-2.86942 8.60198,1.77201 8.60198,1.77201c0,0 -2.54618,2.06447 -5.02355,3.57842c-2.47737,1.51395 -6.9504,3.68165 -6.9504,3.68165z" data-paper-data="{&quot;origPos&quot;:null}" fill="#241608" stroke="none" stroke-width="1" stroke-linecap="butt"/><g><path d="M136.12583,263.57308c0,0 0.99782,-0.27526 1.51394,-0.27526c0.58494,-0.03441 1.2731,0.27526 1.2731,0.27526" fill="none" stroke="#000000" stroke-width="1.46" stroke-linecap="round"/><g><path d="M136.09142,265.05263c0,0 0.75697,-0.65375 1.54835,-0.58494c0.8602,0.06882 0.99783,0.51612 0.99783,0.51612" fill="none" stroke="#000000" stroke-width="1.46" stroke-linecap="round"/><path d="M137.22688,265.32789c0,-0.4129 0.30968,-0.75697 0.72257,-0.75697c0.41289,0 0.72256,0.34407 0.72256,0.75697c0,0.41289 -0.30967,0.75697 -0.72256,0.75697c-0.37849,0 -0.72257,-0.34408 -0.72257,-0.75697z" fill="#000000" stroke="none" stroke-width="1" stroke-linecap="butt"/></g></g><g><path d="M141.42465,263.53868c0,0 0.79138,-0.27526 1.37632,-0.27526c0.51612,0.03441 1.10106,0.17204 1.10106,0.17204" fill="none" stroke="#000000" stroke-width="1.46" stroke-linecap="round"/><g><path d="M141.42465,264.94939c0,0 0.17204,-0.4473 0.99783,-0.51612c0.79138,-0.06881 1.54836,0.58494 1.54836,0.58494" fill="none" stroke="#000000" stroke-width="1.46" stroke-linecap="round"/><path d="M143.04182,265.98164c-0.41289,0 -0.72257,-0.34407 -0.72257,-0.75697c0,-0.41289 0.30967,-0.75697 0.72257,-0.75697c0.41289,0 0.72256,0.34408 0.72256,0.75697c0,0.4129 -0.34408,0.75697 -0.72256,0.75697z" fill="#000000" stroke="none" stroke-width="1" stroke-linecap="butt"/></g></g><g data-paper-data="{&quot;origPos&quot;:null}" fill="#241608" stroke="none" stroke-width="1" stroke-linecap="butt"><path d="M136.09142,274.85888c0,1.89243 -0.89461,3.44079 -1.96125,3.44079c-1.06664,0 -1.96125,-1.54836 -1.96125,-3.44079c0,-1.89243 0.89461,-3.44079 1.96125,-3.44079c1.06664,0 1.96125,1.54836 1.96125,3.44079z"/><path d="M131.96247,278.78138c0,-1.47954 0.75697,-2.68382 1.68599,-2.68382c0.92901,0 1.68599,1.20427 1.68599,2.68382c0,1.47954 -0.75697,2.68381 -1.68599,2.68381c-0.92901,0 -1.68599,-1.20427 -1.68599,-2.68381z"/><path d="M132.16892,282.60065c0,-1.13546 0.58494,-2.06447 1.2731,-2.06447c0.72257,0 1.27309,0.92901 1.27309,2.06447c0,1.13546 -0.58493,2.06448 -1.27309,2.06448c-0.68816,0 -1.2731,-0.92901 -1.2731,-2.06448z"/><path d="M132.61622,285.49091c0,-0.79138 0.4129,-1.41072 0.89461,-1.41072c0.48171,0 0.8946,0.65375 0.8946,1.41072c0,0.75698 -0.41289,1.41073 -0.8946,1.41073c-0.51612,0 -0.89461,-0.61935 -0.89461,-1.41073z"/><path d="M134.61188,288.0371c0.10323,0.8946 -0.82579,1.68599 -0.82579,1.68599c0,0 -1.20428,-0.65375 -1.2731,-1.54836c-0.06882,-0.8946 0.55053,-1.65157 0.92902,-1.68598c0.37849,-0.03441 1.06664,0.65375 1.16987,1.54836z"/></g></g><text transform="translate(176.0716,323.76479) scale(0.35656,0.35656)" font-size="40" xml:space="preserve" fill="#ffffff" fill-rule="nonzero" stroke="none" stroke-width="1" stroke-linecap="butt" stroke-linejoin="miter" stroke-miterlimit="10" stroke-dasharray="" stroke-dashoffset="0" font-family="Sans Serif" font-weight="normal" text-anchor="start" style="mix-blend-mode: normal"><tspan x="0" dy="0">Mary</tspan></text><g><g data-paper-data="{&quot;origPos&quot;:null}" stroke="none" stroke-width="1" stroke-linecap="butt"><path d="M205.33629,293.86733c-1.10106,0.13763 -2.95908,-0.4473 -2.95908,-0.4473c0,0 -2.78704,-16.1373 -0.37848,-16.72224c4.3354,-1.16987 5.12677,16.03408 5.12677,16.03408c0,0 -0.72257,0.99783 -1.78921,1.13546z" fill="#ac752d"/><path d="M200.38156,287.57069c0,0 -3.09671,-11.3202 0.8602,-12.07718c3.4752,-0.68816 7.43211,9.97829 7.43211,9.97829z" fill="#485963"/></g><g data-paper-data="{&quot;origPos&quot;:null}" fill="#ac752d" stroke="none" stroke-width="1" stroke-linecap="butt"><g data-paper-data="{&quot;origPos&quot;:null}"><path d="M208.08892,302.05641l-2.82145,0.82578l-3.0279,-9.32454c0,0 1.06664,-1.44513 2.30533,-1.3419c0.92901,0.06882 2.51178,0.34408 2.51178,0.34408z" data-paper-data="{&quot;origPos&quot;:null}"/></g><path d="M206.89007,309.82326c-0.64807,0.09264 -0.38291,-3.01067 -0.99007,-3.06637c-0.46547,-0.04854 0.08919,1.87618 -0.06014,2.18617c-0.18309,0.31664 -1.12635,-0.19886 -1.12635,-0.19886c0,0 -0.87229,-1.75692 -1.01816,-2.67506c-0.36542,-2.03217 1.58371,-4.06457 1.58371,-4.06457l2.5038,-0.10766c0,0 1.51222,2.15686 1.56199,3.65505c0.02981,1.39691 -1.03495,3.29009 -1.03495,3.29009c0,0 -0.79223,0.96274 -1.41984,0.98121z" data-paper-data="{&quot;origPos&quot;:null,&quot;index&quot;:null,&quot;origRot&quot;:0}"/></g><path d="M183.65932,302.72929l-0.06882,-26.25323c0,0 5.23,-2.71822 9.70302,-2.78704c4.47303,-0.06882 8.23496,1.38013 9.06075,1.82744c0.79138,0.41289 1.05517,27.9698 1.05517,27.9698c0,0 -5.88375,0.96342 -9.87507,0.92901c-4.06013,-0.06881 -9.87506,-1.68598 -9.87506,-1.68598z" data-paper-data="{&quot;origPos&quot;:null}" fill="#536672" stroke="none" stroke-width="1" stroke-linecap="butt"/><g stroke="none" stroke-width="1" stroke-linecap="butt"><path d="M180.0809,294.5746c-0.8602,-0.06882 -2.1677,-0.75698 -2.1677,-0.75698c0,0 1.92684,-17.41039 6.84717,-17.30717c3.85369,-0.10322 -2.47737,17.65125 -2.47737,17.65125c0,0 -1.34191,0.48171 -2.2021,0.4129z" fill="#ac752d"/><path d="M177.98201,285.66296c0,0 4.30098,-9.73744 6.70954,-9.46217c5.71171,0.61934 0.96343,12.45565 0.96343,12.45565z" fill="#485963"/></g><g fill="#ac752d" stroke="none" stroke-width="1" stroke-linecap="butt"><path d="M178.60136,303.07335l-0.72257,-9.53098c0,0 1.37631,-0.4129 2.16769,-0.55053c1.10106,-0.20645 2.30533,1.13546 2.30533,1.13546l-1.10105,9.53099z"/><path d="M179.46155,309.64526c0,0 -1.41072,-1.65158 -1.65157,-3.0279c-0.24086,-1.47954 0.82578,-3.88809 0.82578,-3.88809l2.47737,-0.37849c0,0 2.30533,1.61717 2.33974,3.68165c0.03441,0.92902 -0.48171,2.82145 -0.48171,2.82145c0,0 -0.82578,0.68816 -1.06664,0.41289c-0.24086,-0.27526 -0.03441,-2.27092 -0.48172,-2.13329c-0.58494,0.17204 0.27527,3.16553 -0.37848,3.19994c-0.61934,0.10323 -1.58277,-0.68815 -1.58277,-0.68815z"/></g><path d="M202.61807,264.19242c0,5.40204 -7.08803,10.76968 -11.97395,10.76968c-4.88592,0 -5.74612,-5.40204 -5.74612,-10.76968c0,-5.36763 3.95691,-9.73743 8.87724,-9.73743c4.88592,-0.03441 8.84283,4.3354 8.84283,9.73743z" data-paper-data="{&quot;origPos&quot;:null}" fill="#241608" stroke="none" stroke-width="1" stroke-linecap="butt"/><g fill="#9e6b30" stroke="none" stroke-width="1" stroke-linecap="butt"><path d="M190.71293,270.38585l5.23,1.16986l-0.0344,3.13112c0,0 1.68599,0.30967 1.65158,1.27309c-0.03441,1.54836 -6.50309,2.37414 -7.845,0c-0.51612,-1.16987 0.68816,-1.58276 0.68816,-1.58276z" data-paper-data="{&quot;origPos&quot;:null}"/><path d="M189.13017,266.56657c0.27526,0.82579 0.10323,1.61717 -0.34408,1.7548c-0.48171,0.17204 -1.10105,-0.34408 -1.37632,-1.16987c-0.27526,-0.82579 -0.10323,-1.61717 0.34408,-1.7548c0.48171,-0.17204 1.10106,0.37849 1.37632,1.16987z" data-paper-data="{&quot;origPos&quot;:null}"/><path d="M199.96866,265.8096c0,4.40421 -2.71823,6.74394 -5.05796,6.84717c-4.06013,0.06882 -6.67514,-3.26875 -6.67514,-7.67296c0,-4.40421 0.75698,-7.70737 5.91816,-7.94823c3.9225,-0.20644 6.49622,3.95691 5.80805,8.67079z" data-paper-data="{&quot;origPos&quot;:null}"/></g><path d="M195.97734,270.1794c0,0.24086 -0.68815,0.75698 -1.27309,0.75698c-0.61934,0 -1.20427,-0.65375 -1.20427,-0.92901c0,-0.27526 0.75698,0 1.37632,0c0.58494,0.03441 1.10105,-0.06882 1.10105,0.17204z" fill="#000000" stroke="none" stroke-width="1" stroke-linecap="butt"/><path d="M195.04833,265.98164c0,0 0.79139,1.03224 0.75698,1.54836c0,0.24086 -0.8602,0.72257 -0.8602,0.72257" fill="none" stroke="#000000" stroke-width="1.46" stroke-linecap="round"/><path d="M187.13452,265.49992c0,0 -0.48401,-6.97614 3.37197,-9.03207c5.38173,-2.86942 8.60198,1.77201 8.60198,1.77201c0,0 -2.54618,2.06447 -5.02355,3.57842c-2.47737,1.51395 -6.9504,3.68165 -6.9504,3.68165z" data-paper-data="{&quot;origPos&quot;:null}" fill="#241608" stroke="none" stroke-width="1" stroke-linecap="butt"/><g><path d="M191.12583,263.57308c0,0 0.99782,-0.27526 1.51394,-0.27526c0.58494,-0.03441 1.2731,0.27526 1.2731,0.27526" fill="none" stroke="#000000" stroke-width="1.46" stroke-linecap="round"/><g><path d="M191.09142,265.05263c0,0 0.75697,-0.65375 1.54835,-0.58494c0.8602,0.06882 0.99783,0.51612 0.99783,0.51612" fill="none" stroke="#000000" stroke-width="1.46" stroke-linecap="round"/><path d="M192.22688,265.32789c0,-0.4129 0.30968,-0.75697 0.72257,-0.75697c0.41289,0 0.72256,0.34407 0.72256,0.75697c0,0.41289 -0.30967,0.75697 -0.72256,0.75697c-0.37849,0 -0.72257,-0.34408 -0.72257,-0.75697z" fill="#000000" stroke="none" stroke-width="1" stroke-linecap="butt"/></g></g><g><path d="M196.42465,263.53868c0,0 0.79138,-0.27526 1.37632,-0.27526c0.51612,0.03441 1.10106,0.17204 1.10106,0.17204" fill="none" stroke="#000000" stroke-width="1.46" stroke-linecap="round"/><g><path d="M196.42465,264.94939c0,0 0.17204,-0.4473 0.99783,-0.51612c0.79138,-0.06881 1.54836,0.58494 1.54836,0.58494" fill="none" stroke="#000000" stroke-width="1.46" stroke-linecap="round"/><path d="M198.04182,265.98164c-0.41289,0 -0.72257,-0.34407 -0.72257,-0.75697c0,-0.41289 0.30967,-0.75697 0.72257,-0.75697c0.41289,0 0.72256,0.34408 0.72256,0.75697c0,0.4129 -0.34408,0.75697 -0.72256,0.75697z" fill="#000000" stroke="none" stroke-width="1" stroke-linecap="butt"/></g></g><g data-paper-data="{&quot;origPos&quot;:null}" fill="#241608" stroke="none" stroke-width="1" stroke-linecap="butt"><path d="M191.09142,274.85888c0,1.89243 -0.89461,3.44079 -1.96125,3.44079c-1.06664,0 -1.96125,-1.54836 -1.96125,-3.44079c0,-1.89243 0.89461,-3.44079 1.96125,-3.44079c1.06664,0 1.96125,1.54836 1.96125,3.44079z"/><path d="M186.96247,278.78138c0,-1.47954 0.75697,-2.68382 1.68599,-2.68382c0.92901,0 1.68599,1.20427 1.68599,2.68382c0,1.47954 -0.75697,2.68381 -1.68599,2.68381c-0.92901,0 -1.68599,-1.20427 -1.68599,-2.68381z"/><path d="M187.16892,282.60065c0,-1.13546 0.58494,-2.06447 1.2731,-2.06447c0.72257,0 1.27309,0.92901 1.27309,2.06447c0,1.13546 -0.58493,2.06448 -1.27309,2.06448c-0.68816,0 -1.2731,-0.92901 -1.2731,-2.06448z"/><path d="M187.61622,285.49091c0,-0.79138 0.4129,-1.41072 0.89461,-1.41072c0.48171,0 0.8946,0.65375 0.8946,1.41072c0,0.75698 -0.41289,1.41073 -0.8946,1.41073c-0.51612,0 -0.89461,-0.61935 -0.89461,-1.41073z"/><path d="M189.61188,288.0371c0.10323,0.8946 -0.82579,1.68599 -0.82579,1.68599c0,0 -1.20428,-0.65375 -1.2731,-1.54836c-0.06882,-0.8946 0.55053,-1.65157 0.92902,-1.68598c0.37849,-0.03441 1.06664,0.65375 1.16987,1.54836z"/></g></g><text transform="translate(224.40493,323.76479) scale(0.35656,0.35656)" font-size="40" xml:space="preserve" fill="#ffffff" fill-rule="nonzero" stroke="none" stroke-width="1" stroke-linecap="butt" stroke-linejoin="miter" stroke-miterlimit="10" stroke-dasharray="" stroke-dashoffset="0" font-family="Sans Serif" font-weight="normal" text-anchor="start" style="mix-blend-mode: normal"><tspan x="0" dy="0">Mary</tspan></text><g><g data-paper-data="{&quot;origPos&quot;:null}" stroke="none" stroke-width="1" stroke-linecap="butt"><path d="M253.66963,293.86733c-1.10105,0.13763 -2.95908,-0.4473 -2.95908,-0.4473c0,0 -2.78704,-16.1373 -0.37848,-16.72224c4.3354,-1.16987 5.12678,16.03408 5.12678,16.03408c0,0 -0.72257,0.99783 -1.78921,1.13546z" fill="#ac752d"/><path d="M248.71489,287.57069c0,0 -3.09671,-11.3202 0.8602,-12.07718c3.4752,-0.68816 7.4321,9.97829 7.4321,9.97829z" fill="#485963"/></g><g data-paper-data="{&quot;origPos&quot;:null}" fill="#ac752d" stroke="none" stroke-width="1" stroke-linecap="butt"><g data-paper-data="{&quot;origPos&quot;:null}"><path d="M256.42226,302.05641l-2.82144,0.82578l-3.0279,-9.32454c0,0 1.06664,-1.44513 2.30533,-1.3419c0.92901,0.06882 2.51178,0.34408 2.51178,0.34408z" data-paper-data="{&quot;origPos&quot;:null}"/></g><path d="M255.2234,309.82326c-0.64806,0.09264 -0.38291,-3.01067 -0.99007,-3.06637c-0.46548,-0.04854 0.08919,1.87618 -0.06014,2.18617c-0.18309,0.31664 -1.12635,-0.19886 -1.12635,-0.19886c0,0 -0.87229,-1.75692 -1.01816,-2.67506c-0.36542,-2.03217 1.58371,-4.06457 1.58371,-4.06457l2.5038,-0.10766c0,0 1.51222,2.15686 1.56199,3.65505c0.02981,1.39691 -1.03495,3.29009 -1.03495,3.29009c0,0 -0.79223,0.96274 -1.41984,0.98121z" data-paper-data="{&quot;origPos&quot;:null,&quot;index&quot;:null,&quot;origRot&quot;:0}"/></g><path d="M231.99266,302.72929l-0.06882,-26.25323c0,0 5.23,-2.71822 9.70302,-2.78704c4.47303,-0.06882 8.23496,1.38013 9.06075,1.82744c0.79138,0.41289 1.05517,27.9698 1.05517,27.9698c0,0 -5.88375,0.96342 -9.87507,0.92901c-4.06013,-0.06881 -9.87506,-1.68598 -9.87506,-1.68598z" data-paper-data="{&quot;origPos&quot;:null}" fill="#536672" stroke="none" stroke-width="1" stroke-linecap="butt"/><g stroke="none" stroke-width="1" stroke-linecap="butt"><path d="M228.41423,294.5746c-0.8602,-0.06882 -2.1677,-0.75698 -2.1677,-0.75698c0,0 1.92684,-17.41039 6.84717,-17.30717c3.85369,-0.10322 -2.47737,17.65125 -2.47737,17.65125c0,0 -1.34191,0.48171 -2.2021,0.4129z" fill="#ac752d"/><path d="M226.31535,285.66296c0,0 4.30098,-9.73744 6.70954,-9.46217c5.71171,0.61934 0.96343,12.45565 0.96343,12.45565z" fill="#485963"/></g><g fill="#ac752d" stroke="none" stroke-width="1" stroke-linecap="butt"><path d="M226.93469,303.07335l-0.72257,-9.53098c0,0 1.37632,-0.4129 2.1677,-0.55053c1.10106,-0.20645 2.30533,1.13546 2.30533,1.13546l-1.10105,9.53099z"/><path d="M227.79489,309.64526c0,0 -1.41072,-1.65158 -1.65157,-3.0279c-0.24086,-1.47954 0.82578,-3.88809 0.82578,-3.88809l2.47737,-0.37849c0,0 2.30533,1.61717 2.33974,3.68165c0.03441,0.92902 -0.48172,2.82145 -0.48172,2.82145c0,0 -0.82578,0.68816 -1.06664,0.41289c-0.24086,-0.27526 -0.03441,-2.27092 -0.48172,-2.13329c-0.58494,0.17204 0.27526,3.16553 -0.37849,3.19994c-0.61934,0.10323 -1.58276,-0.68815 -1.58276,-0.68815z"/></g><path d="M250.9514,264.19242c0,5.40204 -7.08803,10.76968 -11.97395,10.76968c-4.88592,0 -5.74612,-5.40204 -5.74612,-10.76968c0,-5.36763 3.9569,-9.73743 8.87723,-9.73743c4.88592,-0.03441 8.84283,4.3354 8.84283,9.73743z" data-paper-data="{&quot;origPos&quot;:null}" fill="#241608" stroke="none" stroke-width="1" stroke-linecap="butt"/><g fill="#9e6b30" stroke="none" stroke-width="1" stroke-linecap="butt"><path d="M239.04627,270.38585l5.23,1.16986l-0.0344,3.13112c0,0 1.68599,0.30967 1.65158,1.27309c-0.03441,1.54836 -6.50309,2.37414 -7.845,0c-0.51612,-1.16987 0.68816,-1.58276 0.68816,-1.58276z" data-paper-data="{&quot;origPos&quot;:null}"/><path d="M237.46351,266.56657c0.27526,0.82579 0.10323,1.61717 -0.34408,1.7548c-0.48171,0.17204 -1.10105,-0.34408 -1.37632,-1.16987c-0.27526,-0.82579 -0.10323,-1.61717 0.34408,-1.7548c0.48171,-0.17204 1.10106,0.37849 1.37632,1.16987z" data-paper-data="{&quot;origPos&quot;:null}"/><path d="M248.30199,265.8096c0,4.40421 -2.71822,6.74394 -5.05796,6.84717c-4.06013,0.06882 -6.67514,-3.26875 -6.67514,-7.67296c0,-4.40421 0.75698,-7.70737 5.91816,-7.94823c3.9225,-0.20644 6.49622,3.95691 5.80805,8.67079z" data-paper-data="{&quot;origPos&quot;:null}"/></g><path d="M244.31068,270.1794c0,0.24086 -0.68815,0.75698 -1.27309,0.75698c-0.61934,0 -1.20427,-0.65375 -1.20427,-0.92901c0,-0.27526 0.75697,0 1.37631,0c0.58494,0.03441 1.10105,-0.06882 1.10105,0.17204z" fill="#000000" stroke="none" stroke-width="1" stroke-linecap="butt"/><path d="M243.38167,265.98164c0,0 0.79139,1.03224 0.75698,1.54836c0,0.24086 -0.8602,0.72257 -0.8602,0.72257" fill="none" stroke="#000000" stroke-width="1.46" stroke-linecap="round"/><path d="M235.46785,265.49992c0,0 -0.48401,-6.97614 3.37197,-9.03207c5.38173,-2.86942 8.60198,1.77201 8.60198,1.77201c0,0 -2.54618,2.06447 -5.02355,3.57842c-2.47737,1.51395 -6.9504,3.68165 -6.9504,3.68165z" data-paper-data="{&quot;origPos&quot;:null}" fill="#241608" stroke="none" stroke-width="1" stroke-linecap="butt"/><g><path d="M239.45917,263.57308c0,0 0.99782,-0.27526 1.51394,-0.27526c0.58494,-0.03441 1.2731,0.27526 1.2731,0.27526" fill="none" stroke="#000000" stroke-width="1.46" stroke-linecap="round"/><g><path d="M239.42476,265.05263c0,0 0.75697,-0.65375 1.54835,-0.58494c0.8602,0.06882 0.99783,0.51612 0.99783,0.51612" fill="none" stroke="#000000" stroke-width="1.46" stroke-linecap="round"/><path d="M240.56022,265.32789c0,-0.4129 0.30967,-0.75697 0.72257,-0.75697c0.41289,0 0.72257,0.34407 0.72257,0.75697c0,0.41289 -0.30967,0.75697 -0.72257,0.75697c-0.37849,0 -0.72257,-0.34408 -0.72257,-0.75697z" fill="#000000" stroke="none" stroke-width="1" stroke-linecap="butt"/></g></g><g><path d="M244.75798,263.53868c0,0 0.79138,-0.27526 1.37632,-0.27526c0.51612,0.03441 1.10106,0.17204 1.10106,0.17204" fill="none" stroke="#000000" stroke-width="1.46" stroke-linecap="round"/><g><path d="M244.75798,264.94939c0,0 0.17204,-0.4473 0.99783,-0.51612c0.79138,-0.06881 1.54836,0.58494 1.54836,0.58494" fill="none" stroke="#000000" stroke-width="1.46" stroke-linecap="round"/><path d="M246.37515,265.98164c-0.41289,0 -0.72257,-0.34407 -0.72257,-0.75697c0,-0.41289 0.30967,-0.75697 0.72257,-0.75697c0.41289,0 0.72257,0.34408 0.72257,0.75697c0,0.4129 -0.34408,0.75697 -0.72257,0.75697z" fill="#000000" stroke="none" stroke-width="1" stroke-linecap="butt"/></g></g><g data-paper-data="{&quot;origPos&quot;:null}" fill="#241608" stroke="none" stroke-width="1" stroke-linecap="butt"><path d="M239.42476,274.85888c0,1.89243 -0.89461,3.44079 -1.96125,3.44079c-1.06664,0 -1.96125,-1.54836 -1.96125,-3.44079c0,-1.89243 0.89461,-3.44079 1.96125,-3.44079c1.06664,0 1.96125,1.54836 1.96125,3.44079z"/><path d="M235.29581,278.78138c0,-1.47954 0.75697,-2.68382 1.68598,-2.68382c0.92901,0 1.68599,1.20427 1.68599,2.68382c0,1.47954 -0.75698,2.68381 -1.68599,2.68381c-0.92901,0 -1.68598,-1.20427 -1.68598,-2.68381z"/><path d="M235.50225,282.60065c0,-1.13546 0.58493,-2.06447 1.27309,-2.06447c0.72257,0 1.27309,0.92901 1.27309,2.06447c0,1.13546 -0.58493,2.06448 -1.27309,2.06448c-0.68816,0 -1.27309,-0.92901 -1.27309,-2.06448z"/><path d="M235.94956,285.49091c0,-0.79138 0.41289,-1.41072 0.8946,-1.41072c0.48171,0 0.89461,0.65375 0.89461,1.41072c0,0.75698 -0.4129,1.41073 -0.89461,1.41073c-0.51612,0 -0.8946,-0.61935 -0.8946,-1.41073z"/><path d="M237.94522,288.0371c0.10323,0.8946 -0.82579,1.68599 -0.82579,1.68599c0,0 -1.20428,-0.65375 -1.2731,-1.54836c-0.06882,-0.8946 0.55053,-1.65157 0.92901,-1.68598c0.37849,-0.03441 1.06664,0.65375 1.16987,1.54836z"/></g></g><text transform="translate(274.0716,323.43146) scale(0.35656,0.35656)" font-size="40" xml:space="preserve" fill="#ffffff" fill-rule="nonzero" stroke="none" stroke-width="1" stroke-linecap="butt" stroke-linejoin="miter" stroke-miterlimit="10" stroke-dasharray="" stroke-dashoffset="0" font-family="Sans Serif" font-weight="normal" text-anchor="start" style="mix-blend-mode: normal"><tspan x="0" dy="0">Mary</tspan></text><g><g data-paper-data="{&quot;origPos&quot;:null}" stroke="none" stroke-width="1" stroke-linecap="butt"><path d="M303.33629,293.534c-1.10105,0.13763 -2.95908,-0.44731 -2.95908,-0.44731c0,0 -2.78704,-16.1373 -0.37849,-16.72223c4.3354,-1.16987 5.12678,16.03408 5.12678,16.03408c0,0 -0.72256,0.99783 -1.78921,1.13546z" fill="#ac752d"/><path d="M298.38156,287.23735c0,0 -3.09671,-11.3202 0.8602,-12.07718c3.4752,-0.68816 7.4321,9.97829 7.4321,9.97829z" fill="#485963"/></g><g data-paper-data="{&quot;origPos&quot;:null}" fill="#ac752d" stroke="none" stroke-width="1" stroke-linecap="butt"><g data-paper-data="{&quot;origPos&quot;:null}"><path d="M306.08892,301.72308l-2.82144,0.82578l-3.0279,-9.32454c0,0 1.06665,-1.44513 2.30533,-1.3419c0.92901,0.06881 2.51178,0.34408 2.51178,0.34408z" data-paper-data="{&quot;origPos&quot;:null}"/></g><path d="M304.89007,309.48992c-0.64806,0.09265 -0.38291,-3.01067 -0.99007,-3.06636c-0.46548,-0.04854 0.08919,1.87619 -0.06014,2.18617c-0.18309,0.31664 -1.12635,-0.19886 -1.12635,-0.19886c0,0 -0.87229,-1.75692 -1.01816,-2.67506c-0.36542,-2.03217 1.58372,-4.06457 1.58372,-4.06457l2.5038,-0.10766c0,0 1.51222,2.15685 1.56199,3.65504c0.02981,1.39692 -1.03495,3.2901 -1.03495,3.2901c0,0 -0.79223,0.96274 -1.41984,0.98121z" data-paper-data="{&quot;origPos&quot;:null,&quot;index&quot;:null,&quot;origRot&quot;:0}"/></g><path d="M281.65932,302.39595l-0.06881,-26.25322c0,0 5.23,-2.71823 9.70302,-2.78704c4.47303,-0.06881 8.23496,1.38013 9.06075,1.82744c0.79138,0.41289 1.05517,27.9698 1.05517,27.9698c0,0 -5.88375,0.96342 -9.87507,0.92901c-4.06013,-0.06882 -9.87507,-1.68599 -9.87507,-1.68599z" data-paper-data="{&quot;origPos&quot;:null}" fill="#536672" stroke="none" stroke-width="1" stroke-linecap="butt"/><g stroke="none" stroke-width="1" stroke-linecap="butt"><path d="M278.0809,294.24127c-0.86019,-0.06881 -2.1677,-0.75698 -2.1677,-0.75698c0,0 1.92685,-17.41039 6.84718,-17.30717c3.85368,-0.10323 -2.47737,17.65125 -2.47737,17.65125c0,0 -1.34191,0.48171 -2.20211,0.41289z" fill="#ac752d"/><path d="M275.98201,285.32962c0,0 4.30099,-9.73743 6.70954,-9.46217c5.71171,0.61934 0.96342,12.45566 0.96342,12.45566z" fill="#485963"/></g><g fill="#ac752d" stroke="none" stroke-width="1" stroke-linecap="butt"><path d="M276.60136,302.74002l-0.72257,-9.53098c0,0 1.37632,-0.4129 2.1677,-0.55053c1.10105,-0.20645 2.30533,1.13546 2.30533,1.13546l-1.10105,9.53099z"/><path d="M277.46155,309.31193c0,0 -1.41072,-1.65158 -1.65157,-3.02789c-0.24086,-1.47954 0.82578,-3.8881 0.82578,-3.8881l2.47737,-0.37848c0,0 2.30533,1.61717 2.33974,3.68164c0.03441,0.92901 -0.48172,2.82144 -0.48172,2.82144c0,0 -0.82578,0.68816 -1.06664,0.4129c-0.24086,-0.27526 -0.03441,-2.27092 -0.48172,-2.13329c-0.58493,0.17204 0.27526,3.16553 -0.37849,3.19993c-0.61934,0.10323 -1.58276,-0.68816 -1.58276,-0.68816z"/></g><path d="M300.61807,263.8591c0,5.40204 -7.08803,10.76968 -11.97395,10.76968c-4.88592,0 -5.74612,-5.40205 -5.74612,-10.76968c0,-5.36763 3.95691,-9.73744 8.87723,-9.73744c4.88592,-0.03441 8.84283,4.33539 8.84283,9.73744z" data-paper-data="{&quot;origPos&quot;:null}" fill="#241608" stroke="none" stroke-width="1" stroke-linecap="butt"/><g fill="#9e6b30" stroke="none" stroke-width="1" stroke-linecap="butt"><path d="M288.71293,270.05252l5.23,1.16987l-0.0344,3.13112c0,0 1.68598,0.30967 1.65157,1.27309c-0.03441,1.54835 -6.50309,2.37414 -7.845,0c-0.51612,-1.16987 0.68816,-1.58276 0.68816,-1.58276z" data-paper-data="{&quot;origPos&quot;:null}"/><path d="M287.13017,266.23324c0.27526,0.82579 0.10322,1.61717 -0.34408,1.7548c-0.48171,0.17204 -1.10105,-0.34408 -1.37631,-1.16987c-0.27526,-0.82579 -0.10323,-1.61717 0.34407,-1.7548c0.48171,-0.17204 1.10106,0.37849 1.37632,1.16987z" data-paper-data="{&quot;origPos&quot;:null}"/><path d="M297.96866,265.47627c0,4.40421 -2.71823,6.74394 -5.05796,6.84717c-4.06013,0.06881 -6.67513,-3.26875 -6.67513,-7.67296c0,-4.40421 0.75698,-7.70737 5.91816,-7.94822c3.9225,-0.20645 6.49621,3.95691 5.80805,8.67079z" data-paper-data="{&quot;origPos&quot;:null}"/></g><path d="M293.97734,269.84607c0,0.24086 -0.68816,0.75698 -1.27309,0.75698c-0.61934,0 -1.20427,-0.65375 -1.20427,-0.92901c0,-0.27526 0.75697,0 1.37631,0c0.58493,0.03441 1.10105,-0.06882 1.10105,0.17204z" fill="#000000" stroke="none" stroke-width="1" stroke-linecap="butt"/><path d="M293.04833,265.64831c0,0 0.79138,1.03224 0.75697,1.54836c0,0.24086 -0.8602,0.72256 -0.8602,0.72256" fill="none" stroke="#000000" stroke-width="1.46" stroke-linecap="round"/><path d="M285.13452,265.1666c0,0 -0.48401,-6.97615 3.37197,-9.03207c5.38173,-2.86942 8.60197,1.772 8.60197,1.772c0,0 -2.54618,2.06448 -5.02355,3.57842c-2.47737,1.51394 -6.95039,3.68165 -6.95039,3.68165z" data-paper-data="{&quot;origPos&quot;:null}" fill="#241608" stroke="none" stroke-width="1" stroke-linecap="butt"/><g><path d="M289.12583,263.23975c0,0 0.99782,-0.27526 1.51394,-0.27526c0.58493,-0.03441 1.2731,0.27526 1.2731,0.27526" fill="none" stroke="#000000" stroke-width="1.46" stroke-linecap="round"/><g><path d="M289.09142,264.7193c0,0 0.75697,-0.65375 1.54835,-0.58493c0.86019,0.06881 0.99783,0.51612 0.99783,0.51612" fill="none" stroke="#000000" stroke-width="1.46" stroke-linecap="round"/><path d="M290.22688,264.99456c0,-0.41289 0.30968,-0.75697 0.72257,-0.75697c0.41289,0 0.72256,0.34408 0.72256,0.75697c0,0.41289 -0.30967,0.75698 -0.72256,0.75698c-0.37849,0 -0.72257,-0.34408 -0.72257,-0.75698z" fill="#000000" stroke="none" stroke-width="1" stroke-linecap="butt"/></g></g><g><path d="M294.42465,263.20534c0,0 0.79138,-0.27526 1.37631,-0.27526c0.51612,0.03441 1.10106,0.17204 1.10106,0.17204" fill="none" stroke="#000000" stroke-width="1.46" stroke-linecap="round"/><g><path d="M294.42465,264.61607c0,0 0.17204,-0.4473 0.99783,-0.51611c0.79138,-0.06882 1.54835,0.58493 1.54835,0.58493" fill="none" stroke="#000000" stroke-width="1.46" stroke-linecap="round"/><path d="M296.04182,265.64831c-0.41289,0 -0.72256,-0.34408 -0.72256,-0.75697c0,-0.4129 0.30967,-0.75698 0.72256,-0.75698c0.41289,0 0.72257,0.34408 0.72257,0.75698c0,0.41289 -0.34408,0.75697 -0.72257,0.75697z" fill="#000000" stroke="none" stroke-width="1" stroke-linecap="butt"/></g></g><g data-paper-data="{&quot;origPos&quot;:null}" fill="#241608" stroke="none" stroke-width="1" stroke-linecap="butt"><path d="M289.09142,274.52554c0,1.89244 -0.89461,3.44079 -1.96125,3.44079c-1.06664,0 -1.96125,-1.54835 -1.96125,-3.44079c0,-1.89243 0.89461,-3.44079 1.96125,-3.44079c1.06664,0 1.96125,1.54836 1.96125,3.44079z"/><path d="M284.96247,278.44804c0,-1.47954 0.75697,-2.68381 1.68599,-2.68381c0.92901,0 1.68599,1.20427 1.68599,2.68381c0,1.47954 -0.75698,2.68381 -1.68599,2.68381c-0.92901,0 -1.68599,-1.20427 -1.68599,-2.68381z"/><path d="M285.16892,282.26732c0,-1.13546 0.58493,-2.06447 1.27309,-2.06447c0.72256,0 1.27309,0.92901 1.27309,2.06447c0,1.13546 -0.58493,2.06447 -1.27309,2.06447c-0.68816,0 -1.27309,-0.92901 -1.27309,-2.06447z"/><path d="M285.61622,285.15759c0,-0.79138 0.41289,-1.41073 0.89461,-1.41073c0.48171,0 0.89461,0.65375 0.89461,1.41073c0,0.75698 -0.41289,1.41072 -0.89461,1.41072c-0.51612,0 -0.89461,-0.61934 -0.89461,-1.41072z"/><path d="M287.61188,287.70376c0.10323,0.89461 -0.82579,1.68599 -0.82579,1.68599c0,0 -1.20428,-0.65376 -1.2731,-1.54836c-0.06881,-0.89461 0.55053,-1.65158 0.92901,-1.68599c0.37849,-0.03441 1.06664,0.65375 1.16987,1.54836z"/></g></g><text transform="translate(324.0716,323.43146) scale(0.35656,0.35656)" font-size="40" xml:space="preserve" fill="#ffffff" fill-rule="nonzero" stroke="none" stroke-width="1" stroke-linecap="butt" stroke-linejoin="miter" stroke-miterlimit="10" stroke-dasharray="" stroke-dashoffset="0" font-family="Sans Serif" font-weight="normal" text-anchor="start" style="mix-blend-mode: normal"><tspan x="0" dy="0">Mary</tspan></text><g><g data-paper-data="{&quot;origPos&quot;:null}" stroke="none" stroke-width="1" stroke-linecap="butt"><path d="M353.33629,293.534c-1.10105,0.13763 -2.95908,-0.44731 -2.95908,-0.44731c0,0 -2.78704,-16.1373 -0.37849,-16.72223c4.3354,-1.16987 5.12678,16.03408 5.12678,16.03408c0,0 -0.72256,0.99783 -1.78921,1.13546z" fill="#ac752d"/><path d="M348.38156,287.23735c0,0 -3.09671,-11.3202 0.8602,-12.07718c3.4752,-0.68816 7.4321,9.97829 7.4321,9.97829z" fill="#485963"/></g><g data-paper-data="{&quot;origPos&quot;:null}" fill="#ac752d" stroke="none" stroke-width="1" stroke-linecap="butt"><g data-paper-data="{&quot;origPos&quot;:null}"><path d="M356.08892,301.72308l-2.82144,0.82578l-3.0279,-9.32454c0,0 1.06665,-1.44513 2.30533,-1.3419c0.92901,0.06881 2.51178,0.34408 2.51178,0.34408z" data-paper-data="{&quot;origPos&quot;:null}"/></g><path d="M354.89007,309.48992c-0.64806,0.09265 -0.38291,-3.01067 -0.99007,-3.06636c-0.46548,-0.04854 0.08919,1.87619 -0.06014,2.18617c-0.18309,0.31664 -1.12635,-0.19886 -1.12635,-0.19886c0,0 -0.87229,-1.75692 -1.01816,-2.67506c-0.36542,-2.03217 1.58372,-4.06457 1.58372,-4.06457l2.5038,-0.10766c0,0 1.51222,2.15685 1.56199,3.65504c0.02981,1.39692 -1.03495,3.2901 -1.03495,3.2901c0,0 -0.79223,0.96274 -1.41984,0.98121z" data-paper-data="{&quot;origPos&quot;:null,&quot;index&quot;:null,&quot;origRot&quot;:0}"/></g><path d="M331.65932,302.39595l-0.06881,-26.25322c0,0 5.23,-2.71823 9.70302,-2.78704c4.47303,-0.06881 8.23496,1.38013 9.06075,1.82744c0.79138,0.41289 1.05517,27.9698 1.05517,27.9698c0,0 -5.88375,0.96342 -9.87507,0.92901c-4.06013,-0.06882 -9.87507,-1.68599 -9.87507,-1.68599z" data-paper-data="{&quot;origPos&quot;:null}" fill="#536672" stroke="none" stroke-width="1" stroke-linecap="butt"/><g stroke="none" stroke-width="1" stroke-linecap="butt"><path d="M328.0809,294.24127c-0.86019,-0.06881 -2.1677,-0.75698 -2.1677,-0.75698c0,0 1.92685,-17.41039 6.84718,-17.30717c3.85368,-0.10323 -2.47737,17.65125 -2.47737,17.65125c0,0 -1.34191,0.48171 -2.20211,0.41289z" fill="#ac752d"/><path d="M325.98201,285.32962c0,0 4.30099,-9.73743 6.70954,-9.46217c5.71171,0.61934 0.96342,12.45566 0.96342,12.45566z" fill="#485963"/></g><g fill="#ac752d" stroke="none" stroke-width="1" stroke-linecap="butt"><path d="M326.60136,302.74002l-0.72257,-9.53098c0,0 1.37632,-0.4129 2.1677,-0.55053c1.10105,-0.20645 2.30533,1.13546 2.30533,1.13546l-1.10105,9.53099z"/><path d="M327.46155,309.31193c0,0 -1.41072,-1.65158 -1.65157,-3.02789c-0.24086,-1.47954 0.82578,-3.8881 0.82578,-3.8881l2.47737,-0.37848c0,0 2.30533,1.61717 2.33974,3.68164c0.03441,0.92901 -0.48172,2.82144 -0.48172,2.82144c0,0 -0.82578,0.68816 -1.06664,0.4129c-0.24086,-0.27526 -0.03441,-2.27092 -0.48172,-2.13329c-0.58493,0.17204 0.27526,3.16553 -0.37849,3.19993c-0.61934,0.10323 -1.58276,-0.68816 -1.58276,-0.68816z"/></g><path d="M350.61807,263.8591c0,5.40204 -7.08803,10.76968 -11.97395,10.76968c-4.88592,0 -5.74612,-5.40205 -5.74612,-10.76968c0,-5.36763 3.95691,-9.73744 8.87723,-9.73744c4.88592,-0.03441 8.84283,4.33539 8.84283,9.73744z" data-paper-data="{&quot;origPos&quot;:null}" fill="#241608" stroke="none" stroke-width="1" stroke-linecap="butt"/><g fill="#9e6b30" stroke="none" stroke-width="1" stroke-linecap="butt"><path d="M338.71293,270.05252l5.23,1.16987l-0.0344,3.13112c0,0 1.68598,0.30967 1.65157,1.27309c-0.03441,1.54835 -6.50309,2.37414 -7.845,0c-0.51612,-1.16987 0.68816,-1.58276 0.68816,-1.58276z" data-paper-data="{&quot;origPos&quot;:null}"/><path d="M337.13017,266.23324c0.27526,0.82579 0.10322,1.61717 -0.34408,1.7548c-0.48171,0.17204 -1.10105,-0.34408 -1.37631,-1.16987c-0.27526,-0.82579 -0.10323,-1.61717 0.34407,-1.7548c0.48171,-0.17204 1.10106,0.37849 1.37632,1.16987z" data-paper-data="{&quot;origPos&quot;:null}"/><path d="M347.96866,265.47627c0,4.40421 -2.71823,6.74394 -5.05796,6.84717c-4.06013,0.06881 -6.67513,-3.26875 -6.67513,-7.67296c0,-4.40421 0.75698,-7.70737 5.91816,-7.94822c3.9225,-0.20645 6.49621,3.95691 5.80805,8.67079z" data-paper-data="{&quot;origPos&quot;:null}"/></g><path d="M343.97734,269.84607c0,0.24086 -0.68816,0.75698 -1.27309,0.75698c-0.61934,0 -1.20427,-0.65375 -1.20427,-0.92901c0,-0.27526 0.75697,0 1.37631,0c0.58493,0.03441 1.10105,-0.06882 1.10105,0.17204z" fill="#000000" stroke="none" stroke-width="1" stroke-linecap="butt"/><path d="M343.04833,265.64831c0,0 0.79138,1.03224 0.75697,1.54836c0,0.24086 -0.8602,0.72256 -0.8602,0.72256" fill="none" stroke="#000000" stroke-width="1.46" stroke-linecap="round"/><path d="M335.13452,265.1666c0,0 -0.48401,-6.97615 3.37197,-9.03207c5.38173,-2.86942 8.60197,1.772 8.60197,1.772c0,0 -2.54618,2.06448 -5.02355,3.57842c-2.47737,1.51394 -6.95039,3.68165 -6.95039,3.68165z" data-paper-data="{&quot;origPos&quot;:null}" fill="#241608" stroke="none" stroke-width="1" stroke-linecap="butt"/><g><path d="M339.12583,263.23975c0,0 0.99782,-0.27526 1.51394,-0.27526c0.58493,-0.03441 1.2731,0.27526 1.2731,0.27526" fill="none" stroke="#000000" stroke-width="1.46" stroke-linecap="round"/><g><path d="M339.09142,264.7193c0,0 0.75697,-0.65375 1.54835,-0.58493c0.86019,0.06881 0.99783,0.51612 0.99783,0.51612" fill="none" stroke="#000000" stroke-width="1.46" stroke-linecap="round"/><path d="M340.22688,264.99456c0,-0.41289 0.30968,-0.75697 0.72257,-0.75697c0.41289,0 0.72256,0.34408 0.72256,0.75697c0,0.41289 -0.30967,0.75698 -0.72256,0.75698c-0.37849,0 -0.72257,-0.34408 -0.72257,-0.75698z" fill="#000000" stroke="none" stroke-width="1" stroke-linecap="butt"/></g></g><g><path d="M344.42465,263.20534c0,0 0.79138,-0.27526 1.37631,-0.27526c0.51612,0.03441 1.10106,0.17204 1.10106,0.17204" fill="none" stroke="#000000" stroke-width="1.46" stroke-linecap="round"/><g><path d="M344.42465,264.61607c0,0 0.17204,-0.4473 0.99783,-0.51611c0.79138,-0.06882 1.54835,0.58493 1.54835,0.58493" fill="none" stroke="#000000" stroke-width="1.46" stroke-linecap="round"/><path d="M346.04182,265.64831c-0.41289,0 -0.72256,-0.34408 -0.72256,-0.75697c0,-0.4129 0.30967,-0.75698 0.72256,-0.75698c0.41289,0 0.72257,0.34408 0.72257,0.75698c0,0.41289 -0.34408,0.75697 -0.72257,0.75697z" fill="#000000" stroke="none" stroke-width="1" stroke-linecap="butt"/></g></g><g data-paper-data="{&quot;origPos&quot;:null}" fill="#241608" stroke="none" stroke-width="1" stroke-linecap="butt"><path d="M339.09142,274.52554c0,1.89244 -0.89461,3.44079 -1.96125,3.44079c-1.06664,0 -1.96125,-1.54835 -1.96125,-3.44079c0,-1.89243 0.89461,-3.44079 1.96125,-3.44079c1.06664,0 1.96125,1.54836 1.96125,3.44079z"/><path d="M334.96247,278.44804c0,-1.47954 0.75697,-2.68381 1.68599,-2.68381c0.92901,0 1.68599,1.20427 1.68599,2.68381c0,1.47954 -0.75698,2.68381 -1.68599,2.68381c-0.92901,0 -1.68599,-1.20427 -1.68599,-2.68381z"/><path d="M335.16892,282.26732c0,-1.13546 0.58493,-2.06447 1.27309,-2.06447c0.72256,0 1.27309,0.92901 1.27309,2.06447c0,1.13546 -0.58493,2.06447 -1.27309,2.06447c-0.68816,0 -1.27309,-0.92901 -1.27309,-2.06447z"/><path d="M335.61622,285.15759c0,-0.79138 0.41289,-1.41073 0.89461,-1.41073c0.48171,0 0.89461,0.65375 0.89461,1.41073c0,0.75698 -0.41289,1.41072 -0.89461,1.41072c-0.51612,0 -0.89461,-0.61934 -0.89461,-1.41072z"/><path d="M337.61188,287.70376c0.10323,0.89461 -0.82579,1.68599 -0.82579,1.68599c0,0 -1.20428,-0.65376 -1.2731,-1.54836c-0.06881,-0.89461 0.55053,-1.65158 0.92901,-1.68599c0.37849,-0.03441 1.06664,0.65375 1.16987,1.54836z"/></g></g></g></g></svg>