<svg version="1.1" xmlns="http://www.w3.org/2000/svg" xmlns:xlink="http://www.w3.org/1999/xlink" width="122.26756" height="85.31695" viewBox="0,0,122.26756,85.31695"><g transform="translate(-140.33161,-191.59976)"><g data-paper-data="{&quot;isPaintingLayer&quot;:true}" fill-rule="nonzero" stroke="none" stroke-width="1" stroke-linecap="butt" stroke-linejoin="miter" stroke-miterlimit="10" stroke-dasharray="" stroke-dashoffset="0" style="mix-blend-mode: normal"><g data-paper-data="{&quot;index&quot;:null}"><path d="M169.63159,267.7167h-14.3l7.1,-64.5l48.1,-8.2h25.6c0,0 -2.8,16.1 -16.3,22.7c-12.8,6.2 -41.1,-1.7 -41.1,-1.7l-9.1,51.6z" data-paper-data="{&quot;origPos&quot;:null}" fill="#98c1dd"></path><path d="M140.33161,276.9167l6.3,-6.8l8.1,-2.3l12.6,-0.6l0.7,9.7z" data-paper-data="{&quot;origPos&quot;:null}" fill="#d6d6d6"></path></g><g data-paper-data="{&quot;index&quot;:null}"><path d="M186.06493,266.20559v-58.9l50.8,-13.5c0,0 14.18318,-4.37356 21.37635,-0.80394c3.76387,1.86783 10.62365,15.20394 -8.37635,25.30394c-7.4,4 -44.5,-0.6 -44.5,-0.6l-5.1,48.7z" data-paper-data="{&quot;origPos&quot;:null}" fill="#98c1dd"></path><path d="M171.76494,275.80559l6.3,-6.8l8.1,-2.3l12.6,-0.6l0.2,10.2z" data-paper-data="{&quot;origPos&quot;:null}" fill="#d6d6d6"></path></g></g></g></svg>