<svg version="1.1" xmlns="http://www.w3.org/2000/svg" xmlns:xlink="http://www.w3.org/1999/xlink" width="95.1854" height="59.40723" viewBox="0,0,95.1854,59.40723"><g transform="translate(-393.24187,-81.16095)"><g stroke="none" stroke-miterlimit="10"><path d="M488.42727,131.96318c0,4.752 -3.854,8.605 -8.605,8.605h-73.792c-4.752,0 -8.604,-3.854 -8.604,-8.605v-37.463c0,-4.752 3.852,-8.604 8.604,-8.604h73.791c4.754,0 8.605,3.852 8.605,8.604v37.463z" fill-opacity="0.76613" fill="#000000"></path><path d="M484.24287,127.34195c0,4.752 -3.854,8.605 -8.605,8.605h-73.792c-4.752,0 -8.604,-3.854 -8.604,-8.605v-37.463c0,-4.752 3.852,-8.604 8.604,-8.604h73.791c4.754,0 8.605,3.852 8.605,8.604v37.463z" fill="#ffffff"></path><path d="M480.82787,89.87895v37.462c0,2.862 -2.327,5.19 -5.191,5.19h-73.791c-2.861,0 -5.19,-2.328 -5.19,-5.19v-37.463c0,-2.862 2.329,-5.19 5.19,-5.19h73.791c2.864,0 5.191,2.329 5.191,5.191z" fill="#2c67ff"></path><text transform="translate(407.68238,102.61095) scale(0.5,0.5)" font-size="40" xml:space="preserve" fill="#ffffff" font-family="Sans Serif" font-weight="normal" text-anchor="start"><tspan x="0" dy="0">Save</tspan><tspan x="0" dy="48px">Roster</tspan></text></g></g></svg>