<svg version="1.1" xmlns="http://www.w3.org/2000/svg" xmlns:xlink="http://www.w3.org/1999/xlink" width="123.56681" height="83.11111" viewBox="0,0,123.56681,83.11111"><g transform="translate(-201.83319,-193.80559)"><g data-paper-data="{&quot;isPaintingLayer&quot;:true}" fill-rule="nonzero" stroke="none" stroke-width="1" stroke-linecap="butt" stroke-linejoin="miter" stroke-miterlimit="10" stroke-dasharray="" stroke-dashoffset="0" style="mix-blend-mode: normal"><g><path d="M296.10002,267.6167l-9.1,-51.6c0,0 -28.3,7.9 -41.1,1.7c-13.5,-6.6 -16.3,-22.7 -16.3,-22.7h25.6l48.1,8.2l7.1,64.5h-14.3z" data-paper-data="{&quot;origPos&quot;:null}" fill="#98c1dd"></path><path d="M297.7,276.9167l0.7,-9.7l12.6,0.6l8.1,2.3l6.3,6.8z" data-paper-data="{&quot;origPos&quot;:null}" fill="#d6d6d6"></path></g><g><path d="M265.46668,266.40559l-5.1,-48.7c0,0 -37.1,4.6 -44.5,0.6c-19,-10.1 -13.2,-24.5 -13.2,-24.5h26.2l50.8,13.5v58.9z" data-paper-data="{&quot;origPos&quot;:null}" fill="#98c1dd"></path><path d="M266.76667,276.30559l0.2,-10.2l12.6,0.6l8.1,2.3l6.3,6.8z" data-paper-data="{&quot;origPos&quot;:null}" fill="#d6d6d6"></path></g></g></g></svg>