<svg version="1.1" xmlns="http://www.w3.org/2000/svg" xmlns:xlink="http://www.w3.org/1999/xlink" width="551" height="430" viewBox="0,0,551,430"><g transform="translate(35.5,35)"><g data-paper-data="{&quot;isPaintingLayer&quot;:true}" fill-rule="nonzero" stroke-linejoin="miter" stroke-miterlimit="10" stroke-dasharray="" stroke-dashoffset="0" style="mix-blend-mode: normal"><path d="M-35.5,395v-430h551v430z" fill="#6a6a6a" stroke="none" stroke-width="0" stroke-linecap="butt"/><text transform="translate(193.02382,187.01875) scale(0.60834,0.60834)" font-size="40" xml:space="preserve" fill="#ffffff" fill-rule="nonzero" stroke="none" stroke-width="1" stroke-linecap="butt" stroke-linejoin="miter" stroke-miterlimit="10" stroke-dasharray="" stroke-dashoffset="0" font-family="Sans Serif" font-weight="normal" text-anchor="start" style="mix-blend-mode: normal"><tspan x="0" dy="0">Loading...</tspan></text><g><g data-paper-data="{&quot;origPos&quot;:null}" stroke="none" stroke-width="1" stroke-linecap="butt"><path d="M91.10001,307.62583l0.9,-9.7l14.8,0.6l9.4,2.3l7.4,6.8z" fill="#ebebeb"/><path d="M90.30001,299.32582l-3.7,-50.4l-6.4,-62h30l0.7,62.3v50.1z" fill="#1b82c2"/></g><g data-paper-data="{&quot;origPos&quot;:null}" stroke="none" stroke-width="1" stroke-linecap="butt"><path d="M53.20001,307.62583l0.9,-9.7l14.8,0.6l9.4,2.3l7.4,6.8z" fill="#ebebeb"/><path d="M54.70001,299.32582l0.5,-52.3l0.7,-60.1h29.1l-6.6,61.8l-4.7,50.6z" fill="#1b82c2"/></g><g data-paper-data="{&quot;origPos&quot;:null}" stroke="none" stroke-width="1" stroke-linecap="butt"><path d="M116.50001,166.27025c-3.2,0.4 -8.6,-1.3 -8.6,-1.3c0,0 -8.1,-46.9 -1.1,-48.6c12.6,-3.4 14.9,46.6 14.9,46.6c0,0 -2.1,2.9 -5.2,3.3z" fill="#dbae76"/><path d="M102.10001,147.97028c0,0 -9,-32.9 2.5,-35.1c10.1,-2 21.6,29 21.6,29z" fill="#45b1b1"/></g><g data-paper-data="{&quot;origPos&quot;:null}" fill="#dbae76" stroke="none" stroke-width="1" stroke-linecap="butt"><g data-paper-data="{&quot;origPos&quot;:null}"><path d="M124.50001,189.62583l-8.2,2.4l-8.8,-27.1c0,0 3.1,-4.2 6.7,-3.9c2.7,0.2 7.3,1 7.3,1z" data-paper-data="{&quot;origPos&quot;:null}"/></g><path d="M121.01576,212.19869c-1.88348,0.26926 -1.11285,-8.74994 -2.87745,-8.9118c-1.35281,-0.14109 0.25922,5.45278 -0.17478,6.35369c-0.53211,0.92025 -3.27353,-0.57795 -3.27353,-0.57795c0,0 -2.53514,-5.10618 -2.95909,-7.77456c-1.06202,-5.90611 4.60277,-11.81289 4.60277,-11.81289l7.27682,-0.31292c0,0 4.39499,6.2685 4.53963,10.6227c0.08663,4.05987 -3.00789,9.56204 -3.00789,9.56204c0,0 -2.30244,2.79799 -4.12649,2.85169z" data-paper-data="{&quot;origPos&quot;:null,&quot;index&quot;:null,&quot;origRot&quot;:0}"/></g><path d="M53.50002,192.02584l-0.2,-76.3c0,0 15.2,-7.9 28.2,-8.1c13,-0.2 23.93334,4.01111 26.33334,5.31111c2.3,1.2 3.06666,81.28889 3.06666,81.28889c0,0 -17.1,2.8 -28.7,2.7c-11.8,-0.2 -28.7,-4.9 -28.7,-4.9z" data-paper-data="{&quot;origPos&quot;:null}" fill="#afe1c6" stroke="none" stroke-width="1" stroke-linecap="butt"/><g stroke="none" stroke-width="1" stroke-linecap="butt"><path d="M43.10001,168.32583c-2.5,-0.2 -6.3,-2.2 -6.3,-2.2c0,0 5.6,-50.6 19.9,-50.3c11.2,-0.3 -7.2,51.3 -7.2,51.3c0,0 -3.9,1.4 -6.4,1.2z" fill="#dbae76"/><path d="M37.00001,142.42582c0,0 11.4,-29 18.4,-28.2c16.6,1.8 3.9,36.9 3.9,36.9z" fill="#45b1b1"/></g><g fill="#dbae76" stroke="none" stroke-width="1" stroke-linecap="butt"><path d="M38.80001,193.02582l-2.1,-27.7c0,0 4,-1.2 6.3,-1.6c3.2,-0.6 6.7,3.3 6.7,3.3l-3.2,27.7z"/><path d="M41.30001,212.12583c0,0 -4.1,-4.8 -4.8,-8.8c-0.7,-4.3 2.4,-11.3 2.4,-11.3l7.2,-1.1c0,0 6.7,4.7 6.8,10.7c0.1,2.7 -1.4,8.2 -1.4,8.2c0,0 -2.4,2 -3.1,1.2c-0.6,-0.8 -0.1,-6.6 -1.4,-6.2c-1.7,0.5 0.8,9.2 -1.1,9.3c-1.8,0.3 -4.6,-2 -4.6,-2z"/></g><path d="M82.20001,51.92583c6.8,-1.1 13.9,6.1 13.9,6.1c0,0 4,0.4 5.1,2.4c1.1,2 1.5,5.3 2,10.3c1.2,13.7 -9.6,34.4 -20.4,35c-7.2,-7 -9.5,-0.2 -11.9,-3.6c-5,-7.2 -8,-11.3 -9.9,-20.4c-1.6,-8.1 -2.5,-12.5 0.8,-19.2c3.3,-6.8 10.5,-6.7 10.5,-6.7l-2.9,-1.7c0,0 6.4,-1.5 9,-1.3c2.2,0.1 6.2,1.5 6.2,1.5z" data-paper-data="{&quot;origPos&quot;:null}" fill="#0a0500" stroke="none" stroke-width="0" stroke-linecap="butt"/><g fill="#cca168" stroke="none" stroke-width="1" stroke-linecap="butt"><path d="M74.00001,98.02581l15.2,3.4l-0.1,9.1c0,0 4.9,0.9 4.8,3.7c-0.1,4.5 -18.9,6.9 -22.8,0c-1.5,-3.4 2,-4.6 2,-4.6z" data-paper-data="{&quot;origPos&quot;:null}"/><path d="M69.40001,86.92581c0.8,2.4 0.3,4.7 -1,5.1c-1.4,0.5 -3.2,-1 -4,-3.4c-0.8,-2.4 -0.3,-4.7 1,-5.1c1.4,-0.5 3.2,1.1 4,3.4z" data-paper-data="{&quot;origPos&quot;:null}"/><path d="M100.90001,84.72581c0,12.8 -7.9,19.6 -14.7,19.9c-11.8,0.2 -19.4,-9.5 -19.4,-22.3c0,-12.8 2.2,-22.4 17.2,-23.1c11.4,-0.6 18.88333,11.5 16.88333,25.2z" data-paper-data="{&quot;origPos&quot;:null}"/></g><path d="M89.30001,97.42583c0,0.7 -2,2.2 -3.7,2.2c-1.7,0 -3.5,-1.9 -3.5,-2.7c0,-0.7 2.2,0 4,0c1.8,0 3.2,-0.2 3.2,0.5z" fill="#000000" stroke="none" stroke-width="1" stroke-linecap="butt"/><path d="M68.00001,69.42583" fill="none" stroke="#000000" stroke-width="4.38" stroke-linecap="round"/><path d="M62.80001,77.18297c0,0 -2.81429,-29.07143 27.5,-21.05714c6.9,1.9 11.4,7.8 11.9,11.7c0.46454,3.69049 -1.10482,10.06473 -1.10482,10.06473l-6.39518,-7.96473c0,0 -5,2.6 -8.2,3.4c-4.9,1.3 -12.5,2 -12.5,2l0.9,-5l-8.05482,13.49501l-0.68803,-8.79501z" data-paper-data="{&quot;origPos&quot;:null}" fill="#0a0500" stroke="none" stroke-width="1" stroke-linecap="butt"/><path d="M88.70001,90.02583c0,0 -0.3,1 -2.2,1c-1.4,0 -2.2,-0.8 -2.2,-0.8" fill="none" stroke="#000000" stroke-width="1.2775" stroke-linecap="round"/><g><path d="M75.20001,78.22582c0,0 2.9,-0.8 4.4,-0.8c1.7,-0.1 3.7,0.8 3.7,0.8" fill="none" stroke="#000000" stroke-width="1.46" stroke-linecap="round"/><g><path d="M75.10001,81.82582c0,0 2.2,-1.2 4.5,-1c2.5,0.2 2.9,1.1 2.9,1.1" fill="none" stroke="#000000" stroke-width="1.46" stroke-linecap="round"/><path d="M78.40001,83.32583c0,-1.2 0.9,-2.2 2.1,-2.2c1.2,0 2.1,1 2.1,2.2c0,1.2 -0.9,2.2 -2.1,2.2c-1.1,0 -2.1,-1 -2.1,-2.2z" fill="#000000" stroke="none" stroke-width="1" stroke-linecap="butt"/></g></g><g><path d="M90.60001,78.12583c0,0 2.3,-0.8 4,-0.8c1.5,0.1 3.2,0.5 3.2,0.5" fill="none" stroke="#000000" stroke-width="1.46" stroke-linecap="round"/><g><path d="M90.60001,82.12583c0,0 1,-1.1 2.9,-1.3c2.3,-0.2 4.5,0.4 4.5,0.4" fill="none" stroke="#000000" stroke-width="1.46" stroke-linecap="round"/><path d="M95.50001,85.22583c-1.2,0 -2.1,-1 -2.1,-2.2c0,-1.2 0.9,-2.2 2.1,-2.2c1.2,0 2.1,1 2.1,2.2c0.1,1.2 -0.9,2.2 -2.1,2.2z" fill="#000000" stroke="none" stroke-width="1" stroke-linecap="butt"/></g></g></g><g data-paper-data="{&quot;index&quot;:null}" stroke="none" stroke-width="1" stroke-linecap="butt"><path d="M362.94899,319.05001l7.4,-6.8l9.4,-2.3l14.8,-0.6l0.9,9.7z" fill="#ebebeb"/><path d="M375.64899,310.75005v-50.1l0.7,-62.3h30l-7.9,62l-3.7,50.4z" fill="#a4bdda"/></g><g data-paper-data="{&quot;index&quot;:null}" stroke="none" stroke-width="1" stroke-linecap="butt"><path d="M400.84899,319.05001l7.4,-6.8l9.4,-2.3l14.8,-0.6l0.9,9.7z" fill="#ebebeb"/><path d="M414.24899,310.75005l-4.7,-50.6l-8,-61.8h29.1l0.7,60.1l0.5,52.3z" fill="#a4bdda"/></g><g data-paper-data="{&quot;index&quot;:null}" stroke="none" stroke-width="1" stroke-linecap="butt"><path d="M364.84899,174.50555c0,0 2.3,-50 14.9,-46.6c7,1.7 -1.1,48.6 -1.1,48.6c0,0 -5.4,1.7 -8.6,1.3c-3.1,-0.4 -5.2,-3.3 -5.2,-3.3z" fill="#d1a56b"/><path d="M360.34899,153.40559c0,0 11.5,-31 21.6,-29c11.5,2.2 2.5,35.1 2.5,35.1z" fill="#774444"/></g><g data-paper-data="{&quot;index&quot;:null}" fill="#d1a56b" stroke="none" stroke-width="1" stroke-linecap="butt"><g data-paper-data="{&quot;origPos&quot;:null}"><path d="M365.04899,174.00566c0,0 4.6,-0.8 7.3,-1c3.6,-0.3 6.7,3.9 6.7,3.9l-8.8,27.1l-8.2,-2.4z" data-paper-data="{&quot;origPos&quot;:null}"/></g><path d="M365.53325,224.17851c-1.82405,-0.0537 -4.12649,-2.85169 -4.12649,-2.85169c0,0 -3.09452,-5.50217 -3.00789,-9.56204c0.14464,-4.3542 4.53963,-10.6227 4.53963,-10.6227l7.27682,0.31292c0,0 5.66479,5.90678 4.60277,11.81289c-0.42395,2.66838 -2.95909,7.77456 -2.95909,7.77456c0,0 -2.74142,1.4982 -3.27353,0.57795c-0.434,-0.90091 1.17803,-6.49478 -0.17478,-6.35369c-1.7646,0.16186 -0.99397,9.18106 -2.87745,8.9118z" data-paper-data="{&quot;origPos&quot;:null,&quot;index&quot;:null,&quot;origRot&quot;:0}"/></g><path d="M404.34897,208.35005c-11.6,0.1 -28.7,-2.7 -28.7,-2.7c0,0 0.76666,-80.08889 3.06666,-81.28889c2.4,-1.3 13.33334,-5.51111 26.33334,-5.31111c13,0.2 28.2,8.1 28.2,8.1l-0.2,76.3c0,0 -16.9,4.7 -28.7,4.9z" data-paper-data="{&quot;index&quot;:null}" fill="#925353" stroke="none" stroke-width="1" stroke-linecap="butt"/><g data-paper-data="{&quot;index&quot;:null}" stroke="none" stroke-width="1" stroke-linecap="butt"><path d="M437.04899,178.55011c0,0 -18.4,-51.6 -7.2,-51.3c14.3,-0.3 19.9,50.3 19.9,50.3c0,0 -3.8,2 -6.3,2.2c-2.5,0.2 -6.4,-1.2 -6.4,-1.2z" fill="#d1a56b"/><path d="M427.24899,162.55003c0,0 -13.8,-34.4 2.8,-36.2c7,-0.8 19.5,27.5 19.5,27.5z" fill="#774444"/></g><g data-paper-data="{&quot;index&quot;:null}" fill="#d1a56b" stroke="none" stroke-width="1" stroke-linecap="butt"><path d="M440.04899,206.15011l-3.2,-27.7c0,0 3.5,-3.9 6.7,-3.3c2.3,0.4 6.3,1.6 6.3,1.6l-2.1,27.7z"/><path d="M440.64899,225.55012c-1.9,-0.1 0.6,-8.8 -1.1,-9.3c-1.3,-0.4 -0.7,5.4 -1.4,6.2c-0.7,0.8 -3.1,-1.2 -3.1,-1.2c0,0 -1.5,-5.5 -1.4,-8.2c0.1,-6 6.8,-10.7 6.8,-10.7l7.2,1.1c0,0 3.1,7 2.4,11.3c-0.7,4 -4.8,8.8 -4.8,8.8c0,0 -2.8,2.3 -4.6,2z"/></g><path d="M421.18232,90.58344c0.4,-0.3 2.66667,-1.73333 5.76667,-1.73333c3.1,0 7.7,4.7 7.7,13.9c0,9.2 -3,17.7 -5.7,20.4c-2.1,2.2 -7.5,-8.2 -7.5,-17.5c0,-9.3 -1.56667,-14.16667 -0.26667,-15.06667z" data-paper-data="{&quot;index&quot;:null}" fill="#1f1307" stroke="none" stroke-width="1" stroke-linecap="butt"/><path d="M406.04899,66.15006c12.4,0 22.5,10.7 22.5,23.8c0,13.1 -10.1,23.8 -22.5,23.8c-12.4,0 -22.5,-10.7 -22.5,-23.8c0,-13.2 10.1,-23.8 22.5,-23.8z" data-paper-data="{&quot;index&quot;:null}" fill="#1f1307" stroke="none" stroke-width="1" stroke-linecap="butt"/><g data-paper-data="{&quot;index&quot;:null}" fill="#cca168" stroke="none" stroke-width="1" stroke-linecap="butt"><path d="M413.44899,121.05003c0,0 3.5,1.2 2,4.6c-3.9,6.9 -22.7,4.5 -22.8,0c-0.1,-2.8 4.8,-3.7 4.8,-3.7l-0.1,-9.1l15.2,-3.4z" data-paper-data="{&quot;origPos&quot;:null}"/><path d="M421.14899,94.95002c1.3,0.4 1.8,2.7 1,5.1c-0.8,2.4 -2.6,3.9 -4,3.4c-1.3,-0.4 -1.8,-2.7 -1,-5.1c0.8,-2.3 2.6,-3.9 4,-3.4z" data-paper-data="{&quot;origPos&quot;:null}"/><path d="M385.68649,95.85002c-2,-13.7 5.4625,-25.8 16.8625,-25.2c15,0.7 17.2,10.3 17.2,23.1c0,12.8 -7.6,22.5 -19.4,22.3c-6.8,-0.3 -14.7,-7.1 -14.7,-19.9z" data-paper-data="{&quot;origPos&quot;:null}"/></g><path d="M400.44899,108.35011c1.8,0 4,-0.7 4,0c0,0.8 -1.7,2.7 -3.5,2.7c-1.7,0 -3.7,-1.5 -3.7,-2.2c0,-0.7 1.5,-0.4 3.2,-0.5z" data-paper-data="{&quot;index&quot;:null}" fill="#000000" stroke="none" stroke-width="1" stroke-linecap="butt"/><path d="M402.24899,102.55012c0,0 -1.2,0.5 -2.5,0.5c-1.1,0 -2.3,-0.7 -2.3,-0.7" data-paper-data="{&quot;index&quot;:null}" fill="none" stroke="#000000" stroke-width="1.46" stroke-linecap="round"/><g data-paper-data="{&quot;index&quot;:null}"><path d="M403.24899,89.65001c0,0 2,-0.9 3.7,-0.8c1.5,0 4.4,0.8 4.4,0.8" fill="none" stroke="#000000" stroke-width="1.46" stroke-linecap="round"/><g><path d="M404.04899,93.75009c0,0 0.4,-1.3 2.9,-1.5c2.3,-0.2 4.5,0.8 4.5,0.8" fill="none" stroke="#000000" stroke-width="1.46" stroke-linecap="round"/><path d="M406.04899,96.95012c-1.2,0 -2.1,-1 -2.1,-2.2c0,-1.2 0.9,-2.2 2.1,-2.2c1.2,0 2.1,1 2.1,2.2c0,1.2 -1,2.2 -2.1,2.2z" fill="#000000" stroke="none" stroke-width="1" stroke-linecap="butt"/></g></g><g data-paper-data="{&quot;index&quot;:null}"><path d="M388.74899,89.25009c0,0 1.7,-0.4 3.2,-0.5c1.7,0 4,0.8 4,0.8" fill="none" stroke="#000000" stroke-width="1.46" stroke-linecap="round"/><g><path d="M388.54899,92.45001c0,0 2.2,-0.5 4.5,-0.3c2.4,0.2 2.9,1.5 2.9,1.5" fill="none" stroke="#000000" stroke-width="1.46" stroke-linecap="round"/><path d="M388.94899,94.45011c0,-1.2 0.9,-2.2 2.1,-2.2c1.2,0 2.1,1 2.1,2.2c0,1.2 -0.9,2.2 -2.1,2.2c-1.2,0 -2.1,-1 -2.1,-2.2z" fill="#000000" stroke="none" stroke-width="1" stroke-linecap="butt"/></g></g><g data-paper-data="{&quot;index&quot;:null}" stroke="none" stroke-width="1" stroke-linecap="butt"><path d="M423.34899,94.25012c-3.2,4.2 -7.1,-3.2 -12.5,-7.2c-5.4,-4 -12.8,-13.2 -9.7,-17.4c3.1,-4.2 13.8,-1 19.2,3c5.3,4.1 6,17.5 3,21.6z" fill="#1f1307"/><path d="M385.04899,72.65011c5.4,-4 12.5,-7.5 15.6,-3.3c3.1,4.2 -6,6.2 -9.9,12c-3.7,5.5 -5.2,17 -8.3,12.8c-3.2,-4.2 -2.8,-17.4 2.6,-21.5z" fill="#2c1b0a"/></g><text transform="translate(163.60001,60.26875) scale(1.03142,1.03142)" font-size="40" xml:space="preserve" fill="#ffffff" fill-rule="nonzero" stroke="none" stroke-width="1" stroke-linecap="butt" stroke-linejoin="miter" stroke-miterlimit="10" stroke-dasharray="" stroke-dashoffset="0" font-family="Curly" font-weight="normal" text-anchor="start" style="mix-blend-mode: normal"><tspan x="0" dy="0">Bible</tspan></text><text transform="translate(183.60001,93.37399) scale(1.03142,1.03142)" font-size="40" xml:space="preserve" fill="#ffffff" fill-rule="nonzero" stroke="none" stroke-width="1" stroke-linecap="butt" stroke-linejoin="miter" stroke-miterlimit="10" stroke-dasharray="" stroke-dashoffset="0" font-family="&quot;ヒラギノ角ゴ Pro W3&quot;, &quot;Hiragino Kaku Gothic Pro&quot;, Osaka, &quot;メイリオ&quot;, Meiryo, &quot;ＭＳ Ｐゴシック&quot;, &quot;MS PGothic&quot;" font-weight="normal" text-anchor="start" style="mix-blend-mode: normal"><tspan x="0" dy="0">Quizzing</tspan></text></g></g></svg>